<?xml version="1.0" encoding="UTF-8"?>
<svg version="1.1" xmlns="http://www.w3.org/2000/svg" width="512" height="512">
<path d="M0 0 C0.74420424 -0.00235223 1.48840847 -0.00470446 2.25516436 -0.00712797 C4.7627879 -0.01381441 7.27035958 -0.01335985 9.77799129 -0.01294994 C11.58851686 -0.01624879 13.39904169 -0.0199744 15.20956558 -0.02409142 C20.19598502 -0.03411721 25.18239241 -0.03782915 30.1688205 -0.04048073 C35.54256746 -0.04438208 40.91630487 -0.05396055 46.29004574 -0.0626936 C59.27334118 -0.08246299 72.2566374 -0.0925249 85.23994413 -0.10142139 C91.35268337 -0.10580358 97.46542174 -0.11117057 103.57816029 -0.11641026 C123.8961424 -0.13342314 144.21412398 -0.14791752 164.53211212 -0.155159 C169.80563578 -0.15706892 175.07915943 -0.15898925 180.35268307 -0.16094494 C181.66340615 -0.16142868 182.97412922 -0.16191242 184.32457118 -0.16241082 C205.55945204 -0.17071187 226.79427659 -0.19604981 248.02913285 -0.22852562 C269.82612293 -0.26158958 291.62308438 -0.27960717 313.42009968 -0.28280324 C325.66007411 -0.28496896 337.89996642 -0.29372682 350.13991642 -0.31926441 C360.56368424 -0.34096233 370.98734999 -0.34902627 381.41113783 -0.33929763 C386.7289329 -0.33475032 392.04651733 -0.33666445 397.36428356 -0.35605907 C402.23574975 -0.37367242 407.10685134 -0.37270771 411.97832131 -0.35716178 C413.73747504 -0.35478295 415.49665389 -0.35912354 417.2557692 -0.37099043 C430.36027016 -0.45389285 440.81100662 1.35256869 451.66689205 9.13422108 C453.18282955 10.21703358 453.18282955 10.21703358 454.72939205 11.32172108 C462.84436001 18.44166571 467.72547598 28.49086272 469.03858948 39.15203297 C469.17729398 42.31651237 469.20057614 45.45925968 469.17482662 48.62666798 C469.18106658 49.82564069 469.18730655 51.02461341 469.1937356 52.25991863 C469.20683145 55.55243634 469.20225278 58.84435334 469.18979073 62.13685501 C469.18067992 65.70133572 469.19473954 69.26573985 469.20571041 72.83020496 C469.22343584 79.79868083 469.21968263 86.76698373 469.20805985 93.73546619 C469.19900287 99.4015759 469.19781128 105.06763736 469.20215511 110.73375225 C469.20276805 111.54213126 469.20338098 112.35051028 469.20401248 113.18338562 C469.20529146 114.82590518 469.20658832 116.46842473 469.20790285 118.11094426 C469.21929094 133.4887826 469.20622242 148.86652533 469.18470138 164.24434798 C469.1668286 177.42310025 469.16993941 190.60171158 469.18837643 203.78046131 C469.20980863 219.10720972 469.21819604 234.4338745 469.20592737 249.76063579 C469.20465325 251.39659241 469.20339577 253.03254903 469.20215511 254.66850567 C469.20153801 255.47330229 469.20092091 256.27809891 469.20028511 257.10728331 C469.1968395 262.76339879 469.2026434 268.41946097 469.21207333 274.0755682 C469.22332071 280.97298406 469.22019581 287.87021796 469.19895035 294.76761312 C469.18847708 298.2829986 469.18425388 301.79808129 469.19754696 305.31346416 C469.20851092 309.13219541 469.19472653 312.95008019 469.17482662 316.76875782 C469.18374951 317.86857898 469.1926724 318.96840014 469.20186567 320.10154921 C469.07794727 332.39879209 464.72525792 341.92886153 456.66689205 351.13422108 C444.28802294 362.69742827 430.14166075 363.43323394 414.04390621 363.40164661 C412.23873923 363.40538578 410.43357387 363.40998837 408.62841105 363.41537726 C403.6799352 363.42758962 398.73152705 363.42734887 393.78303957 363.42498851 C388.44137535 363.4245799 383.09973271 363.43562368 377.75807858 363.44510365 C367.29736417 363.46170476 356.83667231 363.46721278 346.37594584 363.4683284 C337.87178685 363.46927926 329.3676353 363.47339145 320.86347866 363.47972965 C296.7446644 363.49733934 272.62586794 363.5065689 248.50704721 363.5050687 C247.20724718 363.50498879 245.90744715 363.50490888 244.56825924 363.50482655 C243.26686952 363.50474478 241.9654798 363.50466302 240.62465402 363.50457878 C219.53370203 363.50376588 198.44282145 363.52290549 177.35189012 363.55110328 C155.68806959 363.57983813 134.02428389 363.59364325 112.36044383 363.59191573 C100.20096842 363.59125205 88.04156788 363.59673454 75.88210964 363.61827183 C65.52951406 363.63649146 55.17702731 363.64082444 44.82442263 363.62725298 C39.54482867 363.62072746 34.26544345 363.62059131 28.98586941 363.63795948 C24.14718152 363.65371326 19.30886748 363.65080293 14.47018859 363.63339122 C12.72528328 363.63032643 10.98034991 363.63393395 9.23547772 363.64511137 C-6.50032783 363.73918938 -20.82822038 361.36289824 -32.6182642 349.91547108 C-41.06748807 340.18701892 -44.09826439 329.18952743 -43.96129704 316.52151966 C-43.96839142 315.32169252 -43.97548581 314.12186538 -43.98279518 312.88567984 C-43.99722771 309.59529374 -43.98959451 306.30586348 -43.97207224 303.01552153 C-43.95859777 299.45173301 -43.97417097 295.88804772 -43.9858942 292.32426929 C-44.00419955 285.35923112 -43.99580684 278.3944749 -43.97780598 271.42944573 C-43.96373868 265.76621458 -43.95989602 260.1030596 -43.96324825 254.43981266 C-43.9637257 253.63156914 -43.96420314 252.82332562 -43.96469505 251.99058986 C-43.96572145 250.34831183 -43.96677681 248.70603382 -43.96786081 247.06375583 C-43.97641321 232.5673313 -43.95979925 218.0710423 -43.93003178 203.57465076 C-43.90118723 189.52739237 -43.89411779 175.4803291 -43.90952396 161.4330492 C-43.92630532 146.11104813 -43.93030146 130.78913954 -43.9128136 115.46713603 C-43.91096934 113.83175668 -43.90913461 112.19637733 -43.90730953 110.56099796 C-43.90639744 109.75649633 -43.90548535 108.95199469 -43.90454562 108.12311422 C-43.89895307 102.46949644 -43.90223532 96.815924 -43.90885448 91.16230869 C-43.9166057 84.26856769 -43.90977066 77.37501835 -43.88467944 70.48131584 C-43.87222688 66.96795488 -43.86598587 63.4548917 -43.87722111 59.94151974 C-43.88593684 56.12502053 -43.86992168 52.3093826 -43.84777164 48.49295521 C-43.85601241 47.39381617 -43.86425318 46.29467713 -43.87274367 45.16223085 C-43.73949687 32.68483386 -39.15993178 22.72773225 -30.95810795 13.44672108 C-21.59370861 5.19713118 -12.684191 -0.02718426 0 0 Z M-16.33310795 31.13422108 C-20.10596695 36.26950138 -21.45292231 39.72496349 -21.47012234 46.01819515 C-21.47519688 47.00579331 -21.48027142 47.99339146 -21.48549974 49.01091683 C-21.4859975 50.09358263 -21.48649525 51.17624844 -21.48700809 52.2917223 C-21.49139035 53.44372966 -21.4957726 54.59573702 -21.50028765 55.78265369 C-21.51134373 58.98095981 -21.51789743 62.17923835 -21.52246881 65.37755919 C-21.52843168 68.82693848 -21.54003979 72.27629983 -21.55075932 75.725667 C-21.5752673 84.0563332 -21.58990795 92.38700534 -21.60281938 100.71769649 C-21.60653243 103.07128218 -21.61050557 105.42486729 -21.61457205 107.7784524 C-21.63980927 122.39912198 -21.66185872 137.01979253 -21.67430019 151.64047909 C-21.67722981 155.02608843 -21.68019148 158.41169774 -21.6832056 161.79730701 C-21.68395166 162.63876588 -21.68469771 163.48022475 -21.68546636 164.34718238 C-21.698117 177.97490732 -21.73133716 191.6025017 -21.77300744 205.23016562 C-21.81545416 219.226675 -21.83899836 233.22311759 -21.84422076 247.21969116 C-21.84763173 255.0761284 -21.85934975 262.93236158 -21.89232349 270.78873539 C-21.92036284 277.4803245 -21.93130639 284.17166772 -21.92012803 290.86331101 C-21.91495124 294.2753232 -21.91776308 297.68682076 -21.94259357 301.09875774 C-21.96527447 304.80453909 -21.95699289 308.50902974 -21.94110966 312.214818 C-21.95499174 313.28409948 -21.96887383 314.35338095 -21.98317659 315.45506489 C-21.90753189 322.63351414 -20.40321728 328.14959555 -16.33310795 334.13422108 C-10.26178385 340.05272718 -3.11922848 341.38313188 5.2185564 341.38869667 C5.94993763 341.39190315 6.68131886 341.39510963 7.43486315 341.39841327 C9.88084747 341.40670175 12.32658619 341.40079307 14.77257442 341.39491749 C16.54586737 341.3979387 18.31915901 341.40182802 20.09244835 341.40651006 C24.96195658 341.41680273 29.83139127 341.41460499 34.70090556 341.41032946 C39.95390892 341.40786455 45.20689446 341.41687348 50.45989132 341.42436695 C60.74975946 341.43712248 71.03960151 341.43890658 81.32947622 341.43656669 C89.69260344 341.43478433 98.05572273 341.4365314 106.41884899 341.44079113 C107.60870739 341.44138632 108.79856579 341.44198151 110.0244805 341.44259473 C112.44160818 341.44380647 114.85873586 341.44502061 117.27586354 341.44623711 C139.94861905 341.45711593 162.62135969 341.45494853 185.29411604 341.44885226 C206.03869307 341.44368275 226.78322315 341.45493887 247.52779089 341.47395048 C268.82540412 341.4933194 290.12299513 341.50158655 311.42061722 341.49782723 C323.37877105 341.49591376 335.3368849 341.498417 347.29503155 341.51254177 C357.47503635 341.52444447 367.65497659 341.52587292 377.83498226 341.5137516 C383.0289713 341.50785515 388.22284216 341.50678472 393.41682339 341.51875401 C398.17267773 341.5295863 402.92831487 341.52654102 407.68415894 341.51249232 C409.40347923 341.50983808 411.1228164 341.51223469 412.84212016 341.52022818 C422.47749619 341.56191172 430.78271709 341.47750231 439.41689205 336.57172108 C446.06384694 329.37085329 447.40010471 321.70228549 447.29508114 312.20377064 C447.30217553 311.04114205 447.30926991 309.87851345 447.31657928 308.68065369 C447.33105448 305.48030526 447.32333906 302.28093206 447.30585635 299.08062816 C447.29241926 295.61909291 447.30794186 292.15766595 447.31967831 288.69614124 C447.33801115 281.92620902 447.32957244 275.15656634 447.31159008 268.38664328 C447.29753925 262.8834971 447.2936766 257.38042928 447.29703236 251.87726688 C447.2975098 251.09272897 447.29798724 250.30819106 447.29847915 249.49987928 C447.29950552 247.90591245 447.30056088 246.31194564 447.30164491 244.71797885 C447.31020286 230.63905779 447.2935652 216.56027617 447.26381588 202.48138905 C447.23496965 188.82963679 447.2279013 175.1780853 447.24330807 161.52631092 C447.26007835 146.64603803 447.26409687 131.76586034 447.24659771 116.88558495 C447.24475338 115.29823789 447.24291866 113.71089082 447.24109364 112.12354374 C447.24018155 111.342612 447.23926946 110.56168026 447.23832973 109.75708392 C447.23273032 104.26138991 447.23602585 98.76574248 447.24263859 93.270051 C447.25037894 86.57158142 447.24359371 79.87330927 447.21846355 73.17487942 C447.20598589 69.75912087 447.19980068 66.34366943 447.21100521 62.92789936 C447.21969201 59.22184466 447.2037548 55.51668417 447.18155575 51.81070423 C447.1939169 50.19834615 447.1939169 50.19834615 447.20652777 48.55341518 C447.13521973 42.10500757 446.12878651 37.594829 442.66689205 32.13422108 C441.86251705 30.80390858 441.86251705 30.80390858 441.04189205 29.44672108 C432.4631083 21.09369479 422.32548769 21.42249106 411.11778927 21.50603199 C409.33293926 21.50098235 407.54809432 21.49375031 405.76326096 21.48453385 C400.87564794 21.46564441 395.98853682 21.47782669 391.10093665 21.49525678 C385.82344655 21.50864517 380.54602917 21.49318849 375.2685461 21.48143482 C364.93725513 21.46306568 354.60615341 21.47156544 344.27486835 21.48952305 C335.87889894 21.50355301 327.48298086 21.50744099 319.08700085 21.50408077 C317.89170947 21.50360333 316.6964181 21.50312589 315.46490578 21.50263398 C313.03666295 21.50160764 310.60842014 21.50055228 308.18017735 21.49946821 C286.71395976 21.49090281 265.24783351 21.50757185 243.78163815 21.53729725 C222.951521 21.56614144 202.12153541 21.57321454 181.29140377 21.55780506 C158.60596 21.54104605 135.92057868 21.53700509 113.23513329 21.55451542 C110.81647278 21.55635981 108.39781225 21.55819453 105.97915173 21.56001949 C104.78913166 21.56093158 103.5991116 21.56184367 102.37303033 21.5627834 C93.9859157 21.5683901 85.59883154 21.56508043 77.21171856 21.55847454 C66.99256759 21.55074517 56.77354614 21.55747997 46.55442129 21.58264958 C41.34025994 21.59515288 36.12630033 21.60128091 30.91213131 21.59010792 C26.13910372 21.58007325 21.36647861 21.58850883 16.59350003 21.6116891 C14.8668915 21.61685178 13.14024695 21.61528045 11.41365407 21.60629445 C0.04615114 21.55205404 -8.38426617 21.86057234 -16.33310795 31.13422108 Z " fill="#000000" transform="translate(43.33310794830322,-0.13422107696533203)"/>
<path d="M0 0 C0.74121094 0.04125 1.48242188 0.0825 2.24609375 0.125 C5.73047186 1.44119005 7.72998128 3.85394821 9.5625 7 C10.20747113 9.843294 10.14983219 12.55736306 10.05078125 15.4609375 C10.04370651 16.25150543 10.03663177 17.04207336 10.02934265 17.8565979 C10.00151463 20.36372433 9.93880474 22.86855712 9.875 25.375 C9.84990184 27.08199883 9.82709133 28.78903292 9.80664062 30.49609375 C9.75172691 34.66493648 9.66554076 38.83208038 9.5625 43 C10.66537354 42.97905273 11.76824707 42.95810547 12.90454102 42.93652344 C17.06993167 42.86309521 21.23526762 42.81783412 25.40112305 42.78027344 C27.190284 42.76038853 28.97938201 42.73327062 30.76831055 42.69824219 C50.94403389 42.31361948 68.30901586 45.77319267 83.5625 60 C91.26714875 67.99097016 96.50872814 77.22089849 101.5625 87 C101.98160645 87.80163574 102.40071289 88.60327148 102.83251953 89.42919922 C104.1219168 91.92009135 105.37857373 94.42486292 106.625 96.9375 C107.01945313 97.70578125 107.41390625 98.4740625 107.8203125 99.265625 C110.37985664 104.57736715 111.30813869 109.10967427 110.5625 115 C108.83329871 119.89940365 105.78133555 123.94846753 101.5625 127 C96.84849524 128.9223266 92.55694282 129.2886987 87.52981567 129.26742554 C86.3422789 129.27422221 86.3422789 129.27422221 85.13075149 129.28115618 C82.48701009 129.29378178 79.84347518 129.29218101 77.19970703 129.29052734 C75.30049373 129.2965137 73.40128287 129.30331949 71.5020752 129.31088257 C66.34915208 129.32853779 61.19629541 129.33323772 56.04334497 129.33451414 C52.82270143 129.33593644 49.60207475 129.34020753 46.38143539 129.34550858 C35.14213744 129.36400651 23.9028869 129.37217939 12.66357422 129.37060547 C2.19232382 129.36940379 -8.27872056 129.390512 -18.74991882 129.4220928 C-27.74542931 129.44825474 -36.74087251 129.45897281 -45.73642075 129.45769465 C-51.10670157 129.45718504 -56.47679921 129.46286795 -61.84704208 129.48405075 C-66.89831607 129.50343192 -71.9492321 129.50355833 -77.0005188 129.48901749 C-78.85160979 129.48692822 -80.70272318 129.49163727 -82.55377579 129.5037384 C-85.08655181 129.51922051 -87.61809804 129.5098639 -90.15084839 129.49447632 C-90.87829691 129.50476344 -91.60574543 129.51505057 -92.35523784 129.52564943 C-98.29436738 129.44625243 -103.58377107 127.69320864 -107.97104824 123.5527128 C-112.36252572 118.46963529 -113.99349737 114.46048866 -113.84765625 107.82714844 C-113.06477389 102.43085217 -110.48087445 97.88762674 -107.9375 93.125 C-107.38795654 92.06651855 -106.83841309 91.00803711 -106.2722168 89.91748047 C-100.22620592 78.42766868 -93.57168505 68.31233405 -84.4375 59 C-83.81359375 58.35160156 -83.1896875 57.70320313 -82.546875 57.03515625 C-68.33559826 43.39113635 -49.16176369 42.53536362 -30.625 42.8125 C-28.8535271 42.82758534 -27.08204166 42.84126688 -25.31054688 42.85351562 C-21.01921526 42.88619054 -16.72850039 42.93775608 -12.4375 43 C-12.4689209 41.40345581 -12.4689209 41.40345581 -12.50097656 39.7746582 C-12.57353962 35.81450934 -12.61935851 31.8544189 -12.65722656 27.89379883 C-12.67730505 26.18178414 -12.70457392 24.46983772 -12.73925781 22.75805664 C-12.78794401 20.29295992 -12.81050573 17.8287721 -12.828125 15.36328125 C-12.84877014 14.60163162 -12.86941528 13.83998199 -12.89068604 13.05525208 C-12.89225294 9.31921353 -12.5851854 7.22844107 -10.53637695 4.05932617 C-7.17283261 0.75916372 -4.71823736 -0.39250501 0 0 Z M-67.4375 74 C-68.04078125 74.49113281 -68.6440625 74.98226562 -69.265625 75.48828125 C-78.49670519 83.86694187 -83.3401371 95.95571372 -88.4375 107 C-31.0175 107 26.4025 107 85.5625 107 C78.61182754 90.78176427 71.98736074 75.84636278 55.5625 68 C45.06230611 64.08317083 34.14806856 64.56140264 23.125 64.6015625 C21.15307508 64.59953697 19.1811509 64.59662157 17.20922852 64.59286499 C13.0941651 64.58846418 8.97929822 64.59479999 4.86425781 64.60888672 C-0.38066762 64.62597713 -5.62513231 64.61612386 -10.87004089 64.59816933 C-14.9366801 64.5872706 -19.0032121 64.59080562 -23.06985474 64.5985527 C-25.00253353 64.60053792 -26.93522242 64.59815525 -28.8678894 64.59111404 C-43.04411064 64.55078662 -55.94576183 64.62398882 -67.4375 74 Z " fill="#000000" transform="translate(257.4375,383)"/>
<path d="M0 0 C13.1205582 10.66684342 21.77229877 25.62672791 24.0078125 42.4453125 C25.27813315 62.58301856 20.3274416 80.14940915 6.84375 95.6171875 C-3.83046836 106.72078515 -18.82636777 114.19593676 -34.26171875 114.74609375 C-54.41080524 114.9619961 -71.04340052 110.85588997 -85.98071289 96.72460938 C-98.67496681 84.01073528 -104.11379802 68.13376205 -104.3046875 50.5703125 C-104.20980617 32.71789971 -98.31271213 17.67139219 -85.671875 4.99609375 C-61.89576849 -17.6362642 -26.41652692 -19.79122487 0 0 Z M-74.38671875 26.09765625 C-80.61524468 35.20554939 -82.95198801 45.57214392 -81.9921875 56.4453125 C-79.53472467 68.77703865 -73.48447295 79.27406349 -62.9921875 86.4453125 C-51.54991606 92.64119788 -39.53126694 94.7167662 -26.8046875 90.9453125 C-17.50890361 87.4206094 -8.82979085 81.31144268 -3.9921875 72.4453125 C-3.30989664 70.45058855 -2.64169258 68.45095145 -1.9921875 66.4453125 C-3.13695557 66.30955811 -4.28172363 66.17380371 -5.46118164 66.03393555 C-9.73220985 65.52459578 -14.00143278 65.00128986 -18.27026367 64.47387695 C-20.11355462 64.24809199 -21.95730602 64.02603219 -23.80151367 63.80786133 C-26.46144068 63.49252027 -29.11939097 63.16355395 -31.77734375 62.83203125 C-32.59429214 62.73814621 -33.41124054 62.64426117 -34.25294495 62.54753113 C-39.32111235 61.89879759 -43.44961006 60.83026568 -47.9921875 58.4453125 C-50.74195891 54.32065538 -50.77051471 51.29126115 -49.9921875 46.4453125 C-48.46580768 42.45313153 -46.45585915 38.79338207 -44.3671875 35.0703125 C-43.84511719 34.10609375 -43.32304687 33.141875 -42.78515625 32.1484375 C-40.64349015 28.20354143 -38.4649146 24.28102173 -36.25488281 20.37402344 C-35.43262207 18.90497559 -35.43262207 18.90497559 -34.59375 17.40625 C-34.09439941 16.52501465 -33.59504883 15.6437793 -33.08056641 14.73583984 C-31.77759822 12.41636237 -31.77759822 12.41636237 -31.9921875 9.4453125 C-49.41261624 8.51649817 -62.77116678 12.30252702 -74.38671875 26.09765625 Z M-11.9921875 21.4453125 C-13.69262163 24.56344191 -15.37528045 27.69081503 -17.0546875 30.8203125 C-17.54001953 31.70976563 -18.02535156 32.59921875 -18.52539062 33.515625 C-18.97978516 34.36640625 -19.43417969 35.2171875 -19.90234375 36.09375 C-20.32652588 36.87927246 -20.75070801 37.66479492 -21.18774414 38.47412109 C-21.5859436 39.44986084 -21.5859436 39.44986084 -21.9921875 40.4453125 C-21.6621875 41.1053125 -21.3321875 41.7653125 -20.9921875 42.4453125 C-18.40916817 42.92795279 -15.91061868 43.28871498 -13.3046875 43.5703125 C-12.59634766 43.65667969 -11.88800781 43.74304688 -11.15820312 43.83203125 C-7.08126539 44.30635642 -3.10367745 44.53595952 1.0078125 44.4453125 C-0.53734011 35.59580208 -3.77462805 28.09166915 -9.9921875 21.4453125 C-10.6521875 21.4453125 -11.3121875 21.4453125 -11.9921875 21.4453125 Z " fill="#000000" transform="translate(423.9921875,88.5546875)"/>
<path d="M0 0 C2.37126079 1.95280301 3.06656662 2.88619313 4.125 5.75 C4.32098199 8.4621228 4.40774479 11.07150209 4.39915466 13.78341675 C4.40700968 15.00725891 4.40700968 15.00725891 4.41502339 16.25582516 C4.43004096 18.99335343 4.43072892 21.73069507 4.43139648 24.46826172 C4.43901674 26.42953813 4.44744401 28.39081155 4.45661926 30.3520813 C4.47858322 35.68266155 4.48736562 41.01318444 4.49244571 46.34380484 C4.49608677 49.67330324 4.5023255 53.00278655 4.5094471 56.33227921 C4.53394733 67.94532177 4.54699492 79.55831963 4.55053711 91.17138672 C4.55417373 102.00053584 4.5840768 112.82940177 4.62594169 123.65846431 C4.66061538 132.95283923 4.67608504 142.24712016 4.67678314 151.54155934 C4.6775769 157.09405667 4.68636094 162.64626556 4.71478081 168.19869614 C4.74091152 173.42070808 4.74319447 178.64219139 4.72712517 183.86423874 C4.72530675 185.78067678 4.73203668 187.69714488 4.74794388 189.61351776 C4.76834222 192.23051207 4.75789035 194.84564591 4.73973083 197.46261597 C4.7529308 198.2206001 4.76613077 198.97858423 4.77973074 199.75953758 C4.68849962 205.51748812 3.09748159 207.87702914 -0.875 211.75 C-4.95565187 213.3780683 -8.72408861 213.22537644 -12.75 211.5625 C-16.28421958 208.5480186 -17.75201044 206.92336126 -18.25252342 202.14830112 C-18.26902042 200.66891033 -18.26892459 199.18928002 -18.25595093 197.70985413 C-18.2606309 196.89325378 -18.26531087 196.07665344 -18.27013266 195.23530763 C-18.2821115 192.49533025 -18.27261417 189.75585036 -18.26318359 187.01586914 C-18.26724804 185.05297045 -18.27258921 183.09007406 -18.27911377 181.12718201 C-18.29280911 175.79248566 -18.2874793 170.45796305 -18.27797651 165.1232636 C-18.27039035 159.54420195 -18.27742272 153.96515536 -18.28213501 148.38609314 C-18.28759605 139.01526209 -18.28039226 129.64450193 -18.26611328 120.27368164 C-18.24979089 109.43662553 -18.25507093 98.59973878 -18.2715925 87.76268679 C-18.28520309 78.46322716 -18.28712896 69.16381854 -18.27927649 59.86435217 C-18.27459702 54.30806448 -18.27398258 48.7518564 -18.28388596 43.19557381 C-18.29254692 37.97118638 -18.28654951 32.74701739 -18.26920319 27.52265358 C-18.2652335 25.60419833 -18.2663806 23.68572473 -18.27299118 21.76727676 C-18.28117781 19.15031212 -18.27092001 16.53404934 -18.25595093 13.91712952 C-18.26264309 13.15623254 -18.26933526 12.39533557 -18.27623022 11.61138111 C-18.22662628 7.14654594 -17.59899176 4.31776089 -14.875 0.75 C-10.57416886 -2.59509089 -4.73189757 -2.05734677 0 0 Z " fill="#000000" transform="translate(272.875,86.25)"/>
<path d="M0 0 C3.20245782 1.77157241 4.56206266 3.06760622 6.11174011 6.36695862 C7.42601175 11.74241609 7.28620629 16.98916941 7.2746582 22.50366211 C7.2823246 24.39005653 7.2823246 24.39005653 7.29014587 26.31455994 C7.30349772 29.75261129 7.30411885 33.19055246 7.30158257 36.62862468 C7.30051033 39.50379965 7.30540266 42.37895256 7.310188 45.25412279 C7.32126984 52.0394679 7.32172795 58.82475765 7.31567383 65.61010742 C7.30963353 72.59930198 7.3219494 79.58829524 7.3432439 86.57745546 C7.36088229 92.58868944 7.36685776 98.59985948 7.36360615 104.61111838 C7.36179682 108.19673837 7.36439446 111.78221475 7.37832069 115.3678112 C7.39327566 119.36765408 7.38390944 123.36708933 7.37231445 127.36694336 C7.38378006 129.13844757 7.38378006 129.13844757 7.39547729 130.94573975 C7.35629902 137.06067307 7.05995351 141.64289454 4 147 C1.12121032 149.47895778 -0.66317695 149.95713161 -4.4375 150.4375 C-8.68345227 149.91606726 -10.73817577 148.73082959 -14 146 C-16.05680614 142.79476945 -16.25278508 140.23440473 -16.26069641 136.46546936 C-16.26778122 135.33969986 -16.27486603 134.21393036 -16.28216553 133.05404663 C-16.27968811 131.823284 -16.27721069 130.59252136 -16.2746582 129.32446289 C-16.27976913 128.02493179 -16.28488007 126.7254007 -16.29014587 125.38648987 C-16.30353285 121.82449252 -16.3041149 118.2626013 -16.30158257 114.7005837 C-16.30051266 111.72590768 -16.30539674 108.75125312 -16.310188 105.7765817 C-16.32128212 98.75834608 -16.32172112 91.74016398 -16.31567383 84.72192383 C-16.30963305 77.48393361 -16.3219478 70.24613774 -16.3432439 63.00818068 C-16.36086192 56.79150023 -16.36686095 50.57488162 -16.36360615 44.35817713 C-16.36179348 40.64627863 -16.36442781 36.93451877 -16.37832069 33.2226429 C-16.39323399 29.08327752 -16.3839272 24.94430756 -16.37231445 20.80493164 C-16.37995819 19.57619324 -16.38760193 18.34745483 -16.39547729 17.08148193 C-16.38846298 15.95289261 -16.38144867 14.82430328 -16.3742218 13.66151428 C-16.37438954 12.68315644 -16.37455729 11.7047986 -16.37473011 10.69679356 C-15.82442179 6.7364288 -14.00731993 4.12354915 -11.375 1.1875 C-7.63911821 -0.68044089 -4.08767886 -0.64964896 0 0 Z " fill="#000000" transform="translate(228,149)"/>
<path d="M0 0 C0.95473709 -0.00571014 1.90947418 -0.01142029 2.8931427 -0.01730347 C3.94408112 -0.01842133 4.99501953 -0.01953918 6.07780457 -0.02069092 C7.1819722 -0.02565582 8.28613983 -0.03062073 9.42376709 -0.03573608 C13.08994665 -0.05038504 16.75608293 -0.05716437 20.42228699 -0.06268311 C22.96335858 -0.06843243 25.50443015 -0.07419019 28.04550171 -0.07995605 C32.69712239 -0.08912834 37.34873001 -0.0954254 42.00035745 -0.09845281 C48.84484569 -0.10293185 55.68913406 -0.12047154 62.53356153 -0.1494534 C68.46237297 -0.17368601 74.39113469 -0.18139771 80.31999779 -0.18312836 C82.84180985 -0.18615919 85.36362098 -0.19420213 87.88540077 -0.20731354 C91.41192953 -0.22433947 94.9379703 -0.22250191 98.46452332 -0.21600342 C99.50938904 -0.2252182 100.55425476 -0.23443298 101.63078308 -0.243927 C110.47156209 -0.19281007 110.47156209 -0.19281007 114.46525574 3.14044189 C117.19978358 6.23957345 117.7080638 8.62024 117.52775574 12.64044189 C117.29225757 16.07026142 116.46003791 17.14620073 114.10577393 19.74456787 C109.64470281 23.31439315 104.79105782 22.82522248 99.30680847 22.75567627 C98.19230316 22.76122528 97.07779785 22.76677429 95.92951965 22.77249146 C92.25218982 22.78428491 88.57609282 22.76001495 84.89884949 22.73419189 C82.3410752 22.73248079 79.78329915 22.73254647 77.2255249 22.73431396 C71.86815755 22.73266091 66.5112192 22.71454717 61.15397644 22.68243408 C54.96676692 22.64552539 48.78001998 22.63676182 42.59271473 22.64373159 C36.63073712 22.65004354 30.66889648 22.63905671 24.7069416 22.61976624 C22.17398413 22.6127327 19.64101268 22.60961213 17.10804558 22.61045837 C13.56987592 22.608662 10.03236443 22.58729312 6.49430847 22.56036377 C4.92241005 22.56475967 4.92241005 22.56475967 3.3187561 22.56924438 C-5.55020111 22.4650223 -5.55020111 22.4650223 -9.53474426 19.14044189 C-11.84543485 16.16955399 -12.00562235 12.88883085 -11.92927551 9.17559814 C-11.22122243 5.52316592 -9.15939794 3.70260382 -6.53474426 1.14044189 C-4.14481551 -0.05452248 -2.66829437 0.00953613 0 0 Z " fill="#000000" transform="translate(330.5347442626953,233.85955810546875)"/>
<path d="M0 0 C1.44668312 -0.01496269 1.44668312 -0.01496269 2.92259216 -0.03022766 C3.97411972 -0.03089233 5.02564728 -0.03155701 6.10903931 -0.03224182 C7.22164627 -0.04056534 8.33425323 -0.04888885 9.48057556 -0.0574646 C13.16356898 -0.08158711 16.84638539 -0.09033929 20.52944946 -0.09693909 C23.08768772 -0.10590319 25.64592544 -0.11502499 28.2041626 -0.1242981 C33.56911829 -0.14079644 38.93400755 -0.14852291 44.29898071 -0.15138245 C50.49303846 -0.15501737 56.68660059 -0.18491177 62.88050687 -0.22678703 C68.84670013 -0.26570366 74.81274487 -0.2769758 80.77907181 -0.2781086 C83.31402907 -0.28231737 85.84898652 -0.29477775 88.38386154 -0.31562614 C91.92941257 -0.34246702 95.47359497 -0.33773558 99.01919556 -0.32521057 C100.06667465 -0.34004486 101.11415375 -0.35487915 102.19337463 -0.37016296 C106.79951606 -0.32380389 110.14670003 -0.28227605 113.83282471 2.67123413 C116.82919764 5.9750689 117.22362524 7.74848117 117.43179321 12.05540466 C117.04797388 15.62932897 115.56110922 17.65060095 113.19351196 20.27415466 C110.20273168 22.12491657 107.94835968 22.52614164 104.45622253 22.53485107 C103.50715027 22.54193588 102.558078 22.54902069 101.58024597 22.55632019 C100.54584885 22.55384277 99.51145172 22.55136536 98.44570923 22.54881287 C97.35100311 22.5539238 96.256297 22.55903473 95.12841797 22.56430054 C91.50552929 22.57821394 87.88283046 22.57723846 84.25991821 22.57493591 C81.74412464 22.57882179 79.22833173 22.58315623 76.71253967 22.58792114 C71.43754457 22.59538705 66.16259872 22.5952274 60.88760376 22.58982849 C54.79476234 22.58378831 48.70215182 22.59610176 42.60934979 22.61739856 C36.7424494 22.63714987 30.8756394 22.640187 25.00871086 22.63666344 C22.51481522 22.63717733 20.02091594 22.64242775 17.52704048 22.65247536 C14.04141513 22.66479505 10.55632583 22.6580745 7.07070923 22.64646912 C5.52214989 22.65793472 5.52214989 22.65793472 3.94230652 22.66963196 C-2.31168329 22.62354749 -5.92682785 21.9552176 -10.61898804 17.58665466 C-12.36237375 14.19164039 -12.35005881 10.96896683 -11.80648804 7.27415466 C-9.33274341 1.58454202 -6.03098122 0.03352635 0 0 Z " fill="#000000" transform="translate(330.8064880371094,276.72584533691406)"/>
<path d="M0 0 C1.12535156 0.04833984 1.12535156 0.04833984 2.2734375 0.09765625 C5.86866549 1.38166625 7.85511717 3.65636176 9.625 6.9375 C10.35582328 10.65240227 10.30857368 14.30345302 10.27197266 18.08007812 C10.28511505 19.74942665 10.28511505 19.74942665 10.29852295 21.45249939 C10.32049881 25.12498151 10.30596911 28.796256 10.2890625 32.46875 C10.29243111 35.02413158 10.29728411 37.5795116 10.30355835 40.1348877 C10.31092731 45.48804471 10.30070108 50.8407704 10.27685547 56.19384766 C10.24964597 62.37324412 10.25846109 68.55181563 10.2859875 74.73119211 C10.31145462 80.68784323 10.30870437 86.64423914 10.29407883 92.60093689 C10.29074453 95.13028581 10.29483265 97.65965579 10.30647659 100.1889801 C10.3191822 103.72486047 10.2998089 107.25915924 10.27197266 110.79492188 C10.28209381 111.83925888 10.29221497 112.88359589 10.30264282 113.95957947 C10.2356441 118.55571557 10.17060398 121.89880145 7.22714233 125.57702637 C3.89961639 128.59551507 2.10122284 128.90808266 -2.2265625 129.109375 C-6.23433571 128.78875314 -8.39152975 127.04616284 -10.98316193 124.12462425 C-12.61819137 121.55535085 -12.7559389 120.15318578 -12.76940918 117.13101196 C-12.78075897 116.16655655 -12.79210876 115.20210114 -12.80380249 114.2084198 C-12.80087189 113.15689224 -12.79794128 112.10536469 -12.79492188 111.02197266 C-12.80339142 109.90936569 -12.81186096 108.79675873 -12.82058716 107.6504364 C-12.84401281 103.96736259 -12.8449779 100.28470522 -12.84375 96.6015625 C-12.85084856 94.04332308 -12.8585471 91.48508526 -12.86682129 88.92684937 C-12.88027922 83.56185868 -12.88201002 78.19702206 -12.87597656 72.83203125 C-12.86933862 66.63795027 -12.89219027 60.44446522 -12.92929029 54.25050509 C-12.9637247 48.28429097 -12.97032104 42.31826014 -12.96620178 36.35194016 C-12.96789594 33.81699219 -12.97756665 31.2820366 -12.99534607 28.74715042 C-13.01747574 25.2015583 -13.00786209 21.65740354 -12.99023438 18.11181641 C-13.00349762 17.06433731 -13.01676086 16.01685822 -13.03042603 14.93763733 C-12.9775758 10.36357655 -12.92974989 6.98209815 -10.02404785 3.30160522 C-6.64747821 0.28823349 -4.38737314 -0.29199241 0 0 Z " fill="#000000" transform="translate(139.375,170.0625)"/>
<path d="M0 0 C2.58297781 2.18991597 4.48415844 3.96831688 6 7 C6.11424695 9.86668032 6.16786248 12.70961378 6.17700195 15.57714844 C6.18357315 16.46513123 6.19014435 17.35311401 6.19691467 18.26800537 C6.21667143 21.21512939 6.22831607 24.16220237 6.23828125 27.109375 C6.24235678 28.11504768 6.2464323 29.12072037 6.25063133 30.15686798 C6.27150305 35.48055314 6.28579953 40.80421244 6.29516602 46.12792969 C6.30622769 51.62710403 6.34062181 57.12587341 6.38033772 62.62490463 C6.40648501 66.85256706 6.41485623 71.08013278 6.41844749 75.30786896 C6.42331898 77.33484886 6.43494892 79.36182428 6.45348549 81.38872528 C6.47783467 84.22790064 6.47691946 87.06602561 6.4699707 89.90527344 C6.48278076 90.74082764 6.49559082 91.57638184 6.50878906 92.43725586 C6.46135569 97.76176376 5.51030592 100.75928745 2 105 C-1.4094043 107.58644464 -4.8386449 107.36503115 -9 107 C-12.5386994 105.34860695 -13.81070153 104.28394771 -16 101 C-16.20558515 97.97595338 -16.29368016 95.04324376 -16.29052734 92.01806641 C-16.29724457 91.09907059 -16.30396179 90.18007477 -16.31088257 89.23323059 C-16.32991089 86.18928652 -16.33378924 83.14556238 -16.3359375 80.1015625 C-16.34236218 77.98790394 -16.34909029 75.87424627 -16.35610962 73.7605896 C-16.36809457 69.32702574 -16.3717892 64.89353986 -16.37060547 60.45996094 C-16.37040224 54.77796984 -16.39770336 49.09647869 -16.43214989 43.41460609 C-16.45438456 39.04800112 -16.45844406 34.68151709 -16.45738602 30.3148613 C-16.45974719 28.22007906 -16.46859965 26.12529375 -16.48405075 24.03056717 C-16.50364055 21.10026271 -16.49790003 18.1710445 -16.48583984 15.24072266 C-16.49707886 14.37509201 -16.50831787 13.50946136 -16.51989746 12.61759949 C-16.47750017 8.5649423 -16.32375559 6.5135923 -14.11416626 3.00839233 C-9.64893739 -1.23343652 -5.90675089 -1.58216542 0 0 Z " fill="#000000" transform="translate(186,192)"/>
<path d="M0 0 C3.54332909 1.73823691 5.49110389 2.88760738 7.14916992 6.51196289 C8.27203537 11.11522794 8.30540174 15.46178144 8.30078125 20.18359375 C8.30506638 21.15732437 8.3093515 22.13105499 8.31376648 23.1342926 C8.31949317 25.18758367 8.32002232 27.24089501 8.31567383 29.29418945 C8.31251394 32.4236941 8.33599393 35.55225267 8.36132812 38.68164062 C8.3636014 40.68229048 8.36430448 42.68294286 8.36328125 44.68359375 C8.372491 45.61296249 8.38170074 46.54233124 8.39118958 47.49986267 C8.35160119 53.09949118 7.68867141 57.05393192 5 62 C2.12121032 64.47895778 0.33682305 64.95713161 -3.4375 65.4375 C-7.70968693 64.91284546 -9.75031771 63.79623825 -13 61 C-15.79094024 56.18003968 -15.30578643 50.84215623 -15.30078125 45.44140625 C-15.30506638 44.41949692 -15.3093515 43.39758759 -15.31376648 42.3447113 C-15.31950026 40.18709045 -15.32001707 38.02945027 -15.31567383 35.87182617 C-15.31251451 32.57762561 -15.3359833 29.28432396 -15.36132812 25.99023438 C-15.36360133 23.89062613 -15.36430452 21.79101548 -15.36328125 19.69140625 C-15.372491 18.70999161 -15.38170074 17.72857697 -15.39118958 16.71742249 C-15.35532701 11.3952376 -15.02664691 7.58130302 -12 3 C-8.12763025 -0.22697479 -4.95346182 -0.60831987 0 0 Z " fill="#000000" transform="translate(99,234)"/>
</svg>
