<?xml version="1.0" encoding="UTF-8"?>
<svg version="1.1" xmlns="http://www.w3.org/2000/svg" width="512" height="512">
<path d="M0 0 C1.85201716 -0.01641232 3.70397498 -0.04350242 5.55566406 -0.08203125 C21.15413592 -0.40414011 34.30189873 1.74269382 48.24755859 9.10009766 C48.90208008 9.43879883 49.55660156 9.7775 50.23095703 10.12646484 C72.05374338 21.69963587 87.24257228 38.71621441 97.06005859 61.35009766 C97.06005859 62.01009766 97.06005859 62.67009766 97.06005859 63.35009766 C98.04619141 63.03556641 99.03232422 62.72103516 100.04833984 62.39697266 C140.10226802 50.14919639 181.15482987 51.9557119 221.06005859 63.35009766 C221.2590979 62.21834106 221.2590979 62.21834106 221.4621582 61.0637207 C223.69107934 50.9475678 231.22191031 40.83619231 238.06005859 33.35009766 C238.75010986 32.58850342 238.75010986 32.58850342 239.45410156 31.81152344 C247.15070324 23.4172693 255.16635267 16.96944906 265.06005859 11.35009766 C266.03458984 10.78677734 267.00912109 10.22345703 268.01318359 9.64306641 C282.1169039 2.03245231 296.08579167 -0.49309759 311.92578125 -0.30175781 C314.55924191 -0.27491067 317.1884433 -0.30168663 319.82177734 -0.33349609 C334.20159761 -0.36371232 347.55616683 2.28363333 360.37255859 9.10009766 C361.02659668 9.44024902 361.68063477 9.78040039 362.35449219 10.13085938 C386.87353883 23.26798845 404.22632525 45.67953015 412.22802734 72.10400391 C414.50348512 80.46013219 414.66831617 88.70473469 414.58154297 97.3203125 C414.56007519 99.84814306 414.58147499 102.37313315 414.60693359 104.90087891 C414.6318949 118.54805726 412.41635672 130.74015613 406.31005859 143.10009766 C405.96644287 143.80980713 405.62282715 144.5195166 405.26879883 145.25073242 C394.85276047 166.14211248 375.35749643 185.59446711 353.06005859 193.35009766 C352.40005859 193.35009766 351.74005859 193.35009766 351.06005859 193.35009766 C351.22610596 193.95668213 351.39215332 194.5632666 351.56323242 195.18823242 C362.77476997 236.65497709 362.38940298 275.9630846 351.06005859 317.35009766 C351.63578613 317.52460449 352.21151367 317.69911133 352.8046875 317.87890625 C364.84662527 321.68333034 374.6698274 329.05416113 384.06005859 337.35009766 C384.74455078 337.93919922 385.42904297 338.52830078 386.13427734 339.13525391 C399.95374336 351.88952781 408.16719588 369.50996745 413.06005859 387.35009766 C413.23711838 387.98908493 413.41417816 388.6280722 413.59660339 389.28642273 C414.36967952 392.72877878 414.26529741 396.23156691 414.29833984 399.74462891 C414.30641159 400.56903976 414.31448334 401.39345062 414.32279968 402.24284363 C414.33662072 403.99203405 414.34735172 405.74125121 414.35522461 407.49047852 C414.36665338 409.25227956 414.3869576 411.01404853 414.41674805 412.77563477 C414.67517612 428.08064013 412.75517658 441.04889642 405.93505859 454.97509766 C405.54672852 455.7757666 405.15839844 456.57643555 404.75830078 457.40136719 C401.03201939 464.82265422 396.61676862 471.17294037 391.06005859 477.35009766 C390.57021484 477.89891602 390.08037109 478.44773437 389.57568359 479.01318359 C381.96624244 487.39605911 373.88938705 493.76731087 364.06005859 499.35009766 C363.08552734 499.91341797 362.11099609 500.47673828 361.10693359 501.05712891 C339.79216365 512.55895148 311.79038909 515.42439987 288.4855957 509.11816406 C282.47252226 507.31861434 276.70496126 505.08494254 271.06005859 502.35009766 C269.99142578 501.83576172 268.92279297 501.32142578 267.82177734 500.79150391 C248.88660499 491.15703901 234.66975651 475.90882718 224.62255859 457.41259766 C224.26782471 456.76129883 223.91309082 456.11 223.54760742 455.43896484 C222.02169637 452.54393776 221.06005859 450.67111933 221.06005859 447.35009766 C220.45871094 447.51614502 219.85736328 447.68219238 219.23779297 447.85327148 C177.90288826 459.11258084 138.31510887 458.741665 97.06005859 447.35009766 C96.88917725 447.91567383 96.7182959 448.48125 96.54223633 449.06396484 C94.89681859 454.27909319 92.95930352 458.92777431 90.12255859 463.60009766 C89.73777344 464.23633057 89.35298828 464.87256348 88.95654297 465.52807617 C84.51208221 472.5976124 78.99514552 478.51630618 73.06005859 484.35009766 C71.91730469 485.49091797 71.91730469 485.49091797 70.75146484 486.65478516 C50.03155784 506.19612865 23.60789997 512.3973015 -4.01025391 511.73291016 C-12.42723574 511.37169555 -19.97623636 510.04382718 -27.93994141 507.35009766 C-28.89247803 507.03661377 -28.89247803 507.03661377 -29.86425781 506.71679688 C-43.0386303 502.28773939 -58.17182199 494.43284368 -66.93994141 483.35009766 C-67.97519724 480.10855891 -67.71100236 478.79021576 -66.93994141 475.35009766 C-65.39656049 473.17533364 -64.30328868 472.53177129 -61.93994141 471.35009766 C-57.86248372 470.79010347 -56.31406322 471.08950577 -52.88916016 473.47509766 C-51.79501626 474.42554062 -50.70814818 475.38440332 -49.62744141 476.35009766 C-33.1194133 490.11716177 -11.2027852 496.76108056 10.20703125 494.9519043 C33.69961797 492.49140677 53.14260481 482.20023918 68.61865234 464.40869141 C83.7236142 445.27913601 88.96105665 423.16916463 86.87402344 399.21484375 C84.36908266 378.87431651 72.72949734 358.45251193 56.83349609 345.68212891 C37.53451255 330.93171805 14.92086355 324.44978007 -9.30273438 327.66357422 C-30.91967771 331.31859037 -51.39676987 342.61817297 -64.34228516 360.60009766 C-77.91816673 380.38113819 -82.87064547 402.15854492 -79.58251953 425.93457031 C-78.46970334 431.86340766 -76.77855889 437.46168541 -74.32666016 442.98291016 C-73.08582017 445.99587935 -72.53087185 447.89755957 -72.56494141 451.10009766 C-72.55720703 451.83744141 -72.54947266 452.57478516 -72.54150391 453.33447266 C-73.04740498 455.89373694 -73.90101075 456.76319408 -75.93994141 458.35009766 C-79.3223442 459.37952459 -81.2182731 459.60783634 -84.56494141 458.41259766 C-92.69234572 451.35458865 -95.46601298 435.66679557 -96.93994141 425.35009766 C-98.70934227 394.62597698 -93.17375596 367.72663148 -72.56494141 344.10009766 C-71.04349104 342.49732839 -69.50128725 340.91402851 -67.93994141 339.35009766 C-67.12009766 338.51865234 -66.30025391 337.68720703 -65.45556641 336.83056641 C-60.4498332 332.00995647 -55.23357056 328.01353025 -49.31494141 324.41259766 C-48.4194458 323.86430298 -48.4194458 323.86430298 -47.50585938 323.30493164 C-42.86264156 320.59881218 -38.07725069 318.8930513 -32.93994141 317.35009766 C-33.10598877 316.76856934 -33.27203613 316.18704102 -33.44311523 315.58789062 C-44.84177258 275.17267196 -45.79367777 233.6497219 -32.93994141 193.35009766 C-34.11556641 193.04072266 -35.29119141 192.73134766 -36.50244141 192.41259766 C-49.74240784 187.9230643 -60.28908738 179.16852498 -69.93994141 169.35009766 C-70.70048828 168.58826172 -71.46103516 167.82642578 -72.24462891 167.04150391 C-91.7859724 146.3215969 -97.98714525 119.89793903 -97.32275391 92.27978516 C-96.9615393 83.86280332 -95.63367093 76.3138027 -92.93994141 68.35009766 C-92.62645752 67.39756104 -92.62645752 67.39756104 -92.30664062 66.42578125 C-83.89122783 41.39386799 -65.65813116 21.76496752 -42.74462891 9.13916016 C-28.89199182 2.28340464 -15.25425033 0.09858642 0 0 Z M-52.93603516 36.32666016 C-53.59732422 36.99439453 -54.25861328 37.66212891 -54.93994141 38.35009766 C-55.82681641 39.19572266 -56.71369141 40.04134766 -57.62744141 40.91259766 C-58.39056641 41.71697266 -59.15369141 42.52134766 -59.93994141 43.35009766 C-60.44654297 43.83865234 -60.95314453 44.32720703 -61.47509766 44.83056641 C-77.5204228 61.38758756 -81.490231 83.8896951 -81.20947266 105.99462891 C-80.55597941 127.82387883 -69.37705619 147.90991004 -53.82275391 162.86962891 C-35.09421668 178.9842917 -13.14759736 185.81413623 11.48974609 184.55712891 C22.26166168 183.68948221 32.09625431 180.3922861 41.7097168 175.54907227 C45.91706256 173.50194232 48.55137579 172.99484842 53.06005859 174.35009766 C54.99755859 175.97509766 54.99755859 175.97509766 56.06005859 178.35009766 C56.24755859 181.78759766 56.24755859 181.78759766 55.06005859 185.35009766 C42.82749235 197.4463679 19.3832901 199.54187684 3.12255859 199.47509766 C2.18476562 199.47896484 1.24697266 199.48283203 0.28076172 199.48681641 C-5.53847678 199.47872851 -11.1683655 199.09596285 -16.93994141 198.35009766 C-19.10628712 203.82459524 -20.75827617 209.16281347 -22.00244141 214.91259766 C-22.16292969 215.60933594 -22.32341797 216.30607422 -22.48876953 217.02392578 C-25.2678553 229.62468011 -26.30676084 242.09352027 -26.25244141 254.97509766 C-26.24970718 256.01408707 -26.24970718 256.01408707 -26.24691772 257.07406616 C-26.17738176 272.87050775 -24.25899783 287.77633184 -20.43994141 303.10009766 C-20.23860596 303.91776611 -20.03727051 304.73543457 -19.82983398 305.57788086 C-19.19217238 308.07060172 -19.19217238 308.07060172 -17.93994141 311.35009766 C-14.83005824 312.38672538 -13.22809169 312.13751332 -10.07666016 311.62548828 C3.17764024 309.91721008 17.21430681 310.79375587 30.06005859 314.35009766 C31.07841797 314.62853516 32.09677734 314.90697266 33.14599609 315.19384766 C45.64632712 318.99972272 56.91080324 325.16620491 67.06005859 333.35009766 C67.90181641 334.02685547 68.74357422 334.70361328 69.61083984 335.40087891 C88.41446364 351.39711875 100.33706084 374.89262696 103.06005859 399.35009766 C103.19857958 403.14283118 103.19976744 406.93021514 103.18505859 410.72509766 C103.18892578 411.71509766 103.19279297 412.70509766 103.19677734 413.72509766 C103.18891953 419.68131725 102.83047987 425.44353457 102.06005859 431.35009766 C109.64758635 434.35949685 117.23580833 436.09604634 125.24755859 437.53759766 C126.63612061 437.78751465 126.63612061 437.78751465 128.05273438 438.04248047 C156.52886746 442.98911033 186.53741804 441.45420255 214.06005859 432.35009766 C214.72005859 431.69009766 215.38005859 431.03009766 216.06005859 430.35009766 C215.79671208 428.33968483 215.45229945 426.33938351 215.06005859 424.35009766 C213.37058031 394.67927516 219.13237823 367.74811359 238.85693359 344.80322266 C239.58396484 343.99369141 240.31099609 343.18416016 241.06005859 342.35009766 C241.99591797 341.29048828 241.99591797 341.29048828 242.95068359 340.20947266 C255.43232711 326.88872705 273.4668227 317.64664627 291.06005859 313.35009766 C292.37876953 313.01365234 292.37876953 313.01365234 293.72412109 312.67041016 C306.97727455 309.88228277 321.69127162 310.62909006 335.06005859 312.35009766 C338.06945779 304.7625699 339.80600728 297.17434792 341.24755859 289.16259766 C341.41416992 288.23688965 341.58078125 287.31118164 341.75244141 286.35742188 C346.42469333 259.46079298 347.66889439 223.56776924 335.06005859 198.35009766 C333.17480469 198.58986328 333.17480469 198.58986328 331.25146484 198.83447266 C302.20225243 202.03505007 274.29577285 196.31959557 251.18505859 177.85009766 C249.46109215 176.36809142 247.75147867 174.86914371 246.06005859 173.35009766 C245.00044922 172.41423828 245.00044922 172.41423828 243.91943359 171.45947266 C228.20413718 156.73411617 217.18368819 133.73964522 215.06005859 112.35009766 C214.92333288 108.01578209 214.92047515 103.68624296 214.93505859 99.35009766 C214.93119141 98.20025391 214.92732422 97.05041016 214.92333984 95.86572266 C214.92980173 90.25680179 215.04872738 84.87228713 216.06005859 79.35009766 C210.58556101 77.18375194 205.24734278 75.53176289 199.49755859 74.28759766 C198.80082031 74.12710938 198.10408203 73.96662109 197.38623047 73.80126953 C184.78547614 71.02218377 172.31663598 69.98327823 159.43505859 70.03759766 C158.39606918 70.04033188 158.39606918 70.04033188 157.33609009 70.04312134 C141.5396485 70.1126573 126.63382441 72.03104123 111.31005859 75.85009766 C110.49239014 76.05143311 109.67472168 76.25276855 108.83227539 76.46020508 C106.33955453 77.09786668 106.33955453 77.09786668 103.06005859 78.35009766 C102.02343087 81.45998082 102.27264293 83.06194737 102.78466797 86.21337891 C104.49341843 99.47134349 103.61073473 113.50003165 100.06005859 126.35009766 C99.79322266 127.34525391 99.52638672 128.34041016 99.25146484 129.36572266 C95.2964889 142.51382047 88.83478453 155.57537172 79.06005859 165.35009766 C75.25224603 165.70932526 72.88345349 165.84413459 69.56005859 163.85009766 C67.79144139 160.90240232 67.64802581 158.8930373 68.26318359 155.52197266 C69.18711448 153.00380809 70.39292901 151.45959046 72.12255859 149.41259766 C85.94266822 132.83415339 89.94531017 110.31846447 88.06005859 89.35009766 C85.08763555 66.94580618 73.46424943 45.92549417 55.43457031 32.10400391 C23.12717161 8.74341299 -23.31176067 7.7272782 -52.93603516 36.32666016 Z M253.56005859 40.41259766 C236.88615975 57.48293885 229.53064283 79.1292818 229.63598633 102.73388672 C230.19816018 125.77355053 240.39448523 145.90044159 256.61572266 161.97460938 C273.1227167 177.69475888 294.73307391 185.03236083 317.24243164 184.82543945 C341.36569658 184.02096126 361.07719634 173.30206741 377.95458984 156.45947266 C385.33301859 148.53140926 390.61690742 139.23591599 394.43505859 129.16259766 C394.79289429 128.2199707 394.79289429 128.2199707 395.15795898 127.25830078 C402.25864569 107.40614596 401.16289281 84.13175957 392.32446289 65.04003906 C382.02610517 44.07649884 365.28769768 27.28644837 343.06005859 19.35009766 C310.01489977 9.18500709 278.81594383 16.52094999 253.56005859 40.41259766 Z M257.06005859 348.35009766 C256.32529297 348.97271484 255.59052734 349.59533203 254.83349609 350.23681641 C244.28423351 359.92448583 237.49421764 372.91591281 233.06005859 386.35009766 C232.72103516 387.34783203 232.38201172 388.34556641 232.03271484 389.37353516 C226.117429 410.14518407 229.70109952 433.00298037 239.93115234 451.69775391 C251.75696541 472.36479559 269.60637754 486.50022894 292.37255859 493.34619141 C316.55614002 499.42115357 339.74786717 494.91539841 361.06005859 482.35009766 C364.65654366 479.92648526 367.87072964 477.28406296 371.06005859 474.35009766 C371.88892578 473.61275391 372.71779297 472.87541016 373.57177734 472.11572266 C388.81874521 457.82606824 398.37162904 437.80916519 399.37646484 416.91650391 C400.11293931 391.67913944 392.73977789 370.22413507 375.26318359 351.58837891 C358.91183171 334.9761012 337.99334327 326.19132912 314.74755859 325.91259766 C292.73336071 326.07614746 273.62109085 333.99256409 257.06005859 348.35009766 Z " fill="#000000" transform="translate(97.93994140625,-0.35009765625)"/>
<path d="M0 0 C2.89344141 0.81943165 4.0947099 2.26859013 6 4.56640625 C6.50057125 7.06206512 6.50057125 7.06206512 6.50120544 9.91784668 C6.51103958 11.00299057 6.52087372 12.08813446 6.53100586 13.2061615 C6.52133789 14.39174149 6.51166992 15.57732147 6.50170898 16.79882812 C6.50981346 18.67738243 6.50981346 18.67738243 6.51808167 20.59388733 C6.52844746 24.02597718 6.52086512 27.45710334 6.50437045 30.88910866 C6.49051609 34.48137426 6.49698046 38.07361088 6.50050354 41.66589355 C6.50320537 47.69840569 6.48973256 53.73071882 6.46655273 59.76318359 C6.43994302 66.73651231 6.43819591 73.7095083 6.4499411 80.68287039 C6.46072224 87.3923477 6.45452922 94.10170472 6.44038582 100.81117249 C6.43462889 103.66596827 6.43470636 106.52067595 6.43945122 109.37547302 C6.44511177 113.36177144 6.42589821 117.34773724 6.40405273 121.33398438 C6.41080521 123.11235435 6.41080521 123.11235435 6.41769409 124.926651 C6.40778946 126.01179489 6.39788483 127.09693878 6.38768005 128.21496582 C6.38403521 129.62857769 6.38403521 129.62857769 6.38031673 131.07074738 C5.92472418 134.06037021 5.11005856 135.41939297 3 137.56640625 C-0.42890226 138.43921774 -2.89259577 138.89563454 -6.3125 137.87890625 C-8.431788 136.23057114 -9.14874336 135.12017617 -10 132.56640625 C-10.125 129.31640625 -10.125 129.31640625 -10 126.56640625 C-10.86109375 126.30859375 -11.7221875 126.05078125 -12.609375 125.78515625 C-16.1075231 124.52775739 -19.05591609 122.96038565 -22.25 121.06640625 C-23.28640625 120.45796875 -24.3228125 119.84953125 -25.390625 119.22265625 C-28.17637513 117.45445557 -29.68374206 116.44219748 -30.8125 113.31640625 C-31.06300353 109.64235447 -29.90135019 107.66490286 -28 104.56640625 C-24.87143524 103.00212387 -22.47287869 103.28633539 -19 103.56640625 C-16.36 104.88640625 -13.72 106.20640625 -11 107.56640625 C-10.67 82.15640625 -10.34 56.74640625 -10 30.56640625 C-16.27 33.53640625 -22.54 36.50640625 -29 39.56640625 C-32.75516706 41.0880611 -36.4383347 42.54362852 -40.25 43.87890625 C-41.50683594 44.34006836 -41.50683594 44.34006836 -42.7890625 44.81054688 C-50.45937895 47.55734939 -58.05108187 49.44669475 -66 51.56640625 C-66.33 63.44640625 -66.66 75.32640625 -67 87.56640625 C-64.36 87.89640625 -61.72 88.22640625 -59 88.56640625 C-56.73411404 89.08461335 -54.4812925 89.66516777 -52.25 90.31640625 C-51.16203125 90.620625 -50.0740625 90.92484375 -48.953125 91.23828125 C-45.46477345 92.80711661 -44.0064588 94.33459183 -42 97.56640625 C-42.06028844 101.06313587 -42.30222823 103.46466135 -44.1875 106.44140625 C-47.29664405 108.3712198 -50.40840387 108.88730655 -54.01733398 108.15966797 C-56.24013852 107.51302473 -58.43230952 106.80872334 -60.625 106.06640625 C-62.11409099 105.56748401 -63.60622806 105.07754195 -65.1015625 104.59765625 C-65.75463379 104.37658203 -66.40770508 104.15550781 -67.08056641 103.92773438 C-69.37048542 103.49666338 -70.77777163 103.92793223 -73 104.56640625 C-75.59373914 104.63538867 -78.15810197 104.66075377 -80.75 104.62890625 C-81.44738281 104.62439453 -82.14476562 104.61988281 -82.86328125 104.61523438 C-84.57555803 104.60350645 -86.28779033 104.58557278 -88 104.56640625 C-87.7690564 105.53247803 -87.7690564 105.53247803 -87.53344727 106.51806641 C-86.84434986 110.45585595 -86.65597535 114.35084769 -86.46484375 118.33984375 C-86.42186661 119.18181305 -86.37888947 120.02378235 -86.33460999 120.89126587 C-86.2446727 122.66798242 -86.15652989 124.4447906 -86.07006836 126.22167969 C-85.93828222 128.9253584 -85.80067273 131.62869227 -85.66210938 134.33203125 C-85.57517613 136.06378481 -85.48857667 137.79555517 -85.40234375 139.52734375 C-85.36173325 140.32860687 -85.32112274 141.12987 -85.27928162 141.95541382 C-84.59705276 156.11639832 -84.59705276 156.11639832 -88 160.56640625 C-90.85324437 161.99302844 -92.83454549 161.87674493 -96 161.56640625 C-98.62109375 160.33984375 -98.62109375 160.33984375 -101 157.56640625 C-101.9400978 153.3703012 -102.07370379 149.16629238 -102.25 144.87890625 C-102.31880371 143.64624023 -102.38760742 142.41357422 -102.45849609 141.14355469 C-102.66594601 137.28528181 -102.83722101 133.42680263 -103 129.56640625 C-103.05639648 128.32487793 -103.11279297 127.08334961 -103.17089844 125.80419922 C-103.49111531 118.72626948 -103.77018032 111.64784204 -104 104.56640625 C-104.68344482 104.57945801 -105.36688965 104.59250977 -106.07104492 104.60595703 C-106.96927979 104.6161084 -107.86751465 104.62625977 -108.79296875 104.63671875 C-110.12751099 104.65629639 -110.12751099 104.65629639 -111.48901367 104.67626953 C-115.67381871 104.4931716 -118.45214972 103.06798926 -121.4375 100.171875 C-125.23563747 95.90976052 -126.10580314 92.65148969 -126.17700195 87.10839844 C-126.18983719 86.23358826 -126.20267242 85.35877808 -126.21589661 84.4574585 C-126.22328354 83.51888 -126.23067047 82.58030151 -126.23828125 81.61328125 C-126.246353 80.63909241 -126.25442474 79.66490356 -126.26274109 78.66119385 C-126.27656007 76.60015633 -126.28729198 74.53909614 -126.29516602 72.47802734 C-126.30668312 70.37737287 -126.32713056 68.2767476 -126.35668945 66.17626953 C-126.39949118 63.13423863 -126.41555297 60.0930764 -126.42578125 57.05078125 C-126.45204338 55.6550589 -126.45204338 55.6550589 -126.47883606 54.23114014 C-126.45905296 48.23029018 -125.53199335 43.52726696 -122 38.56640625 C-116.02191867 33.70921517 -111.2426112 33.41384345 -103.76171875 33.43359375 C-102.56323051 33.43215866 -102.56323051 33.43215866 -101.3405304 33.43069458 C-99.65190553 33.43001507 -97.96327803 33.43185341 -96.2746582 33.43603516 C-93.70713328 33.44136549 -91.13978497 33.43609336 -88.57226562 33.4296875 C-86.92708295 33.43034873 -85.28190039 33.43163083 -83.63671875 33.43359375 C-82.87606613 33.43156952 -82.11541351 33.42954529 -81.33171082 33.42745972 C-77.86665975 33.44247687 -74.67177383 33.61555196 -71.23022461 34.13085938 C-68.22509585 34.53605548 -66.53121889 34.51936733 -63.6796875 33.66796875 C-62.90778076 33.44061035 -62.13587402 33.21325195 -61.34057617 32.97900391 C-60.52693604 32.71909668 -59.7132959 32.45918945 -58.875 32.19140625 C-57.57816284 31.78801025 -57.57816284 31.78801025 -56.25512695 31.37646484 C-42.43318464 26.92965399 -29.10078416 21.05569898 -16.44018555 13.95361328 C-12.1797605 11.56640625 -12.1797605 11.56640625 -10 11.56640625 C-10.0825 10.67953125 -10.165 9.79265625 -10.25 8.87890625 C-10 5.56640625 -10 5.56640625 -8.5 2.69140625 C-5.46162086 0.10878398 -3.85895726 0.00753703 0 0 Z M-110 49.56640625 C-110 62.43640625 -110 75.30640625 -110 88.56640625 C-101.09 88.56640625 -92.18 88.56640625 -83 88.56640625 C-83 75.69640625 -83 62.82640625 -83 49.56640625 C-91.91 49.56640625 -100.82 49.56640625 -110 49.56640625 Z " fill="#000000" transform="translate(313,176.43359375)"/>
<path d="M0 0 C0.99 0.33 1.98 0.66 3 1 C5.09703503 -0.02695389 5.09703503 -0.02695389 7.25 -1.5 C10.60684878 -3.46271777 11.8527331 -3.99762473 15.875 -4.0625 C19 -3 19 -3 20.9375 -1.375 C22.73841825 2.65058197 22.65687242 6.06643707 21.23828125 10.2421875 C19.74936279 13.73790909 18.22084389 16.70788942 15.91796875 19.75390625 C13.54422347 23.77138553 13.32515691 26.80516471 13.0625 31.375 C11.48537537 49.74208777 4.94958457 63.77391185 -8 77 C-8.51820312 77.55429688 -9.03640625 78.10859375 -9.5703125 78.6796875 C-20.92781933 89.68041401 -37.7032964 93.92813001 -53 94.375 C-66.91663427 94.01373297 -81.83499264 90.75095171 -93 82 C-94.44430855 79.11138291 -94.37688506 77.20352299 -94 74 C-91.35736534 70.54860581 -89.26759865 68.76702478 -85.01171875 68.07421875 C-83.57247539 67.92306534 -82.13069431 67.79454658 -80.6875 67.6875 C-79.94693359 67.61466797 -79.20636719 67.54183594 -78.44335938 67.46679688 C-76.6307149 67.29137967 -74.81549459 67.14293553 -73 67 C-73.86625 66.05125 -74.7325 65.1025 -75.625 64.125 C-85.94033789 52.02947377 -90.04375153 38.78445294 -89 23 C-87.90902675 15.91243588 -86.64777556 9.25075614 -83 3 C-79.17798542 0.45199028 -77.53385176 0.31992224 -73 1 C-69.43779101 3.69818383 -66.70057118 7.1793309 -63.8125 10.5625 C-58.29562355 15.34379293 -51.24445428 18.88137103 -44 20 C-43.67128906 18.93072266 -43.67128906 18.93072266 -43.3359375 17.83984375 C-40.39027468 8.94298409 -37.3262487 3.49976403 -28.875 -0.875 C-18.44273516 -5.78238938 -10.44468662 -4.26348683 0 0 Z M-25 16 C-28.29437603 20.5023139 -28.47479719 25.10186584 -28.7890625 30.51171875 C-29 33 -29 33 -30 36 C-45.69730353 36.67676997 -57.29264594 34.11455386 -71 26 C-71.66 25.67 -72.32 25.34 -73 25 C-73.46114123 34.530252 -71.94228004 42.57756547 -65.80078125 50.12109375 C-61.45942941 54.65079057 -56.47093362 58.26809957 -51 61.3125 C-48 63 -48 63 -47 65 C-46.625 67.8125 -46.625 67.8125 -47 71 C-49.375 73.75 -49.375 73.75 -52 76 C-52.99 76.99 -52.99 76.99 -54 78 C-37.76592215 77.70773346 -26.03506874 72.43636327 -14.8125 60.875 C-8.14922602 53.06793048 -3.99824484 43.20593603 -3 33 C-2.88269531 31.83855469 -2.76539063 30.67710938 -2.64453125 29.48046875 C-2.16416669 22.8872136 -2.16416669 22.8872136 -4.28515625 16.80859375 C-7.64308539 13.6342416 -11.39603624 12.01151849 -16.01171875 11.76953125 C-19.64018038 12.19011914 -22.2647943 13.62029849 -25 16 Z " fill="#000000" transform="translate(134,57)"/>
<path d="M0 0 C1.07909637 -0.01007584 1.07909637 -0.01007584 2.17999268 -0.02035522 C4.54934673 -0.03929377 6.91841683 -0.04325745 9.2878418 -0.04541016 C10.94305028 -0.05184155 12.59825762 -0.05857017 14.25346375 -0.06558228 C17.72092319 -0.07754509 21.1882831 -0.08126419 24.65576172 -0.08007812 C29.08417732 -0.07987513 33.51194982 -0.10716157 37.9402132 -0.14162254 C41.35903312 -0.16393641 44.77769944 -0.16791428 48.1965847 -0.16685867 C49.82836305 -0.16920848 51.46014602 -0.17799691 53.09185219 -0.19352341 C70.30624513 -0.3419765 70.30624513 -0.3419765 77.69799805 6.03662109 C78.36702148 6.87386719 78.36702148 6.87386719 79.04956055 7.72802734 C79.74178711 8.56140625 79.74178711 8.56140625 80.44799805 9.41162109 C83.50972824 14.10172371 83.93290085 18.15622196 83.96508789 23.70776367 C83.97180511 24.43691483 83.97852234 25.16606598 83.98544312 25.91731262 C84.00438391 28.31913132 84.00834545 30.72066993 84.01049805 33.12255859 C84.01692927 34.80018731 84.02365788 36.4778149 84.03067017 38.15544128 C84.04263353 41.66997883 84.04635202 45.18441815 84.04516602 48.69897461 C84.04496301 53.18792078 84.07224991 57.67623256 84.10671043 62.16502857 C84.12902221 65.63017125 84.13300223 69.09516236 84.13194656 72.56036949 C84.13429667 74.21447623 84.14308677 75.86858751 84.1586113 77.52262306 C84.29512076 93.57068992 84.29512076 93.57068992 79.67456055 100.29052734 C77.6394043 102.34912109 77.6394043 102.34912109 75.61206055 103.72802734 C74.94045898 104.20111328 74.26885742 104.67419922 73.5769043 105.16162109 C69.60369955 107.51943664 65.86225132 107.45027748 61.39257812 107.4675293 C60.28465912 107.47738609 60.28465912 107.47738609 59.15435791 107.48744202 C56.70926813 107.5071555 54.26423979 107.51883484 51.8190918 107.52880859 C50.98232092 107.53288412 50.14555004 107.53695965 49.28342247 107.54115868 C44.85219953 107.56201371 40.42100748 107.5763164 35.98974609 107.58569336 C31.42455496 107.59674096 26.8598535 107.63112314 22.29483509 107.67086506 C18.774807 107.69708075 15.25489456 107.7053897 11.73477745 107.70897484 C10.05274852 107.71383006 8.37072438 107.7254136 6.68879128 107.74401283 C-11.54686345 107.93309074 -11.54686345 107.93309074 -18.3840332 101.29052734 C-18.83907227 100.63052734 -19.29411133 99.97052734 -19.76293945 99.29052734 C-20.23602539 98.63052734 -20.70911133 97.97052734 -21.1965332 97.29052734 C-23.5991255 93.03403165 -23.46589111 88.90295357 -23.50244141 84.07861328 C-23.5090126 83.35936172 -23.5155838 82.64011017 -23.52235413 81.89906311 C-23.54202579 79.52434167 -23.55373643 77.14968332 -23.5637207 74.77490234 C-23.56779623 73.96111366 -23.57187176 73.14732498 -23.57607079 72.30887604 C-23.59690612 68.00084184 -23.61121838 63.69283925 -23.62060547 59.38476562 C-23.63166035 54.94851257 -23.66605659 50.5127624 -23.70577717 46.07668686 C-23.73199487 42.65359603 -23.74030188 39.2306241 -23.74388695 35.80744171 C-23.74874016 34.17286027 -23.76031791 32.5382837 -23.77892494 30.90380096 C-23.96296787 13.66466542 -23.96296787 13.66466542 -17.5793457 6.26708984 C-17.02118164 5.82107422 -16.46301758 5.37505859 -15.88793945 4.91552734 C-15.33235352 4.45404297 -14.77676758 3.99255859 -14.2043457 3.51708984 C-9.54429499 0.47497774 -5.51592691 0.03241854 0 0 Z M-6.21536255 17.40060425 C-7.88797719 20.24825654 -7.70714122 22.63127803 -7.71362305 25.91748047 C-7.71888 26.58609604 -7.72413696 27.25471161 -7.72955322 27.94358826 C-7.74275471 30.15322242 -7.73401527 32.36213589 -7.72387695 34.57177734 C-7.72589766 36.10730121 -7.72880908 37.64282415 -7.73257446 39.17834473 C-7.73699799 42.39633319 -7.73056605 45.61407182 -7.71655273 48.83203125 C-7.69946057 52.9582635 -7.70930163 57.08391038 -7.72727013 61.21012115 C-7.73810734 64.38084326 -7.73466197 67.55142643 -7.72688675 70.72215271 C-7.72488455 72.24360727 -7.72734471 73.76507442 -7.73432541 75.28651428 C-7.74193918 77.41254113 -7.73033827 79.53761818 -7.71362305 81.66357422 C-7.71123627 82.87364136 -7.70884949 84.0837085 -7.70639038 85.33044434 C-7.53073381 88.22394009 -7.53073381 88.22394009 -6.21536255 90.18045044 C-3.36771026 91.85306508 -0.98468877 91.67222911 2.30151367 91.67871094 C2.97012924 91.6839679 3.63874481 91.68922485 4.32762146 91.69464111 C6.53725562 91.7078426 8.74616909 91.69910316 10.95581055 91.68896484 C12.49133442 91.69098555 14.02685735 91.69389697 15.56237793 91.69766235 C18.78036639 91.70208588 21.99810503 91.69565394 25.21606445 91.68164062 C29.34229671 91.66454846 33.46794359 91.67438952 37.59415436 91.69235802 C40.76487646 91.70319523 43.93545964 91.69974986 47.10618591 91.69197464 C48.62764047 91.68997245 50.14910762 91.6924326 51.67054749 91.6994133 C53.79657433 91.70702707 55.92165138 91.69542617 58.04760742 91.67871094 C59.25767456 91.67632416 60.4677417 91.67393738 61.71447754 91.67147827 C64.60797329 91.4958217 64.60797329 91.4958217 66.56448364 90.18045044 C68.23709828 87.33279815 68.05626232 84.94977666 68.06274414 81.66357422 C68.0680011 80.99495865 68.07325806 80.32634308 68.07867432 79.63746643 C68.0918758 77.42783227 68.08313636 75.2189188 68.07299805 73.00927734 C68.07501876 71.47375348 68.07793017 69.93823054 68.08169556 68.40270996 C68.08611909 65.1847215 68.07968714 61.96698286 68.06567383 58.74902344 C68.04858166 54.62279118 68.05842273 50.49714431 68.07639122 46.37093353 C68.08722843 43.20021143 68.08378307 40.02962825 68.07600784 36.85890198 C68.07400565 35.33744742 68.07646581 33.81598027 68.0834465 32.29454041 C68.09106027 30.16851356 68.07945937 28.04343651 68.06274414 25.91748047 C68.05916397 24.10237976 68.05916397 24.10237976 68.05551147 22.25061035 C67.87985491 19.3571146 67.87985491 19.3571146 66.56448364 17.40060425 C63.71683135 15.72798961 61.33380986 15.90882557 58.04760742 15.90234375 C57.37899185 15.89708679 56.71037628 15.89182983 56.02149963 15.88641357 C53.81186547 15.87321209 51.60295201 15.88195153 49.39331055 15.89208984 C47.85778668 15.89006913 46.32226375 15.88715772 44.78674316 15.88339233 C41.5687547 15.87896881 38.35101607 15.88540075 35.13305664 15.89941406 C31.00682439 15.91650623 26.88117751 15.90666516 22.75496674 15.88869667 C19.58424463 15.87785946 16.41366146 15.88130483 13.24293518 15.88908005 C11.72148062 15.89108224 10.20001347 15.88862208 8.67857361 15.88164139 C6.55254677 15.87402762 4.42746971 15.88562852 2.30151367 15.90234375 C0.48641296 15.90592392 0.48641296 15.90592392 -1.36535645 15.90957642 C-4.2588522 16.08523298 -4.2588522 16.08523298 -6.21536255 17.40060425 Z " fill="#000000" transform="translate(382.325439453125,356.70947265625)"/>
<path d="M0 0 C3.0077776 1.61381371 5.9638 3.29828291 8.91455078 5.01416016 C9.99969971 5.63403809 11.08484863 6.25391602 12.20288086 6.89257812 C15.63485397 8.85830455 19.05655094 10.84104741 22.47705078 12.82666016 C24.73220428 14.12753648 26.98741165 15.4283194 29.24267578 16.72900391 C53.32226786 30.66944164 53.32226786 30.66944164 54.47705078 34.82666016 C55.14701451 41.86127935 55.14701451 41.86127935 52.80273438 45.23925781 C50.30379357 48.01941471 48.0642747 49.51269808 44.80517578 51.32275391 C43.67644043 51.95753662 42.54770508 52.59231934 41.38476562 53.24633789 C40.16556749 53.91901808 38.94632832 54.5916239 37.72705078 55.26416016 C35.84187614 56.3190639 33.95877622 57.37761187 32.07565308 58.43617249 C30.79178176 59.15741214 29.50720938 59.87740519 28.22195435 60.59617615 C21.71683545 64.23686795 15.28163069 67.99184365 8.85205078 71.76416016 C6.88096926 72.91957333 4.90963972 74.07456354 2.93798828 75.22900391 C2.12120605 75.70845459 1.30442383 76.18790527 0.46289062 76.68188477 C-3.45075109 78.93797845 -5.93724435 79.20880223 -10.52294922 78.82666016 C-14.29951236 77.04526245 -16.08013636 75.90974886 -17.67431641 72.01049805 C-19.13363125 66.27870783 -18.8078132 60.31954284 -18.78857422 54.44775391 C-18.79048767 53.16232193 -18.79240112 51.87688995 -18.79437256 50.55250549 C-18.79730861 47.8418391 -18.79307473 45.1313052 -18.78369141 42.4206543 C-18.77228619 38.95856168 -18.77887253 35.49677886 -18.79083633 32.03469753 C-18.7998278 28.71402525 -18.79352096 25.39343497 -18.78857422 22.07275391 C-18.79262268 20.83512802 -18.79667114 19.59750214 -18.80084229 18.32237244 C-18.79453796 17.1641951 -18.78823364 16.00601776 -18.78173828 14.81274414 C-18.78014709 13.79905258 -18.77855591 12.78536102 -18.7769165 11.74095154 C-18.39356444 7.34196126 -17.43519281 3.91546702 -14.58544922 0.51416016 C-9.87125435 -3.34290838 -5.15296906 -2.39647467 0 0 Z M-2.52294922 17.82666016 C-2.52294922 31.35666016 -2.52294922 44.88666016 -2.52294922 58.82666016 C9.20562446 52.99866387 9.20562446 52.99866387 20.60205078 46.63916016 C21.31619141 46.22730469 22.03033203 45.81544922 22.76611328 45.39111328 C26.47931499 43.20545071 29.58574597 41.08499589 32.47705078 37.82666016 C31.44708984 37.22080078 30.41712891 36.61494141 29.35595703 35.99072266 C28.67533203 35.59030762 27.99470703 35.18989258 27.29345703 34.77734375 C25.77930112 33.88676028 24.26497562 32.99646507 22.75048828 32.10644531 C18.69570629 29.72300425 14.6439716 27.33465011 10.59814453 24.93603516 C9.8233374 24.4776123 9.04853027 24.01918945 8.25024414 23.546875 C6.74872454 22.65831598 5.24821485 21.7680479 3.7487793 20.87597656 C0.7932195 18.7766315 0.7932195 18.7766315 -2.52294922 17.82666016 Z " fill="#000000" transform="translate(91.52294921875,371.17333984375)"/>
<path d="M0 0 C0.88083252 -0.01885254 1.76166504 -0.03770508 2.66918945 -0.05712891 C8.92418269 0.00655655 8.92418269 0.00655655 12.19921875 2.3125 C14.28368734 5.51058879 14.09165038 7.76679697 13.625 11.5 C11.86484869 14.6850357 11.12609084 15.33296972 7.625 16.5 C3.8475332 16.73446346 0.07108247 16.881705 -3.7109375 17.0234375 C-7.52195031 17.51911294 -9.40003332 18.11371931 -12.375 20.5 C-14.98482262 24.15946401 -15.7672029 26.76838851 -15.88671875 31.23828125 C-15.92216797 32.30498047 -15.95761719 33.37167969 -15.99414062 34.47070312 C-16.01669922 35.57349609 -16.03925781 36.67628906 -16.0625 37.8125 C-16.09666016 38.93462891 -16.13082031 40.05675781 -16.16601562 41.21289062 C-16.24829601 43.97516062 -16.31751281 46.73712113 -16.375 49.5 C-15.33859375 49.44199219 -14.3021875 49.38398437 -13.234375 49.32421875 C-11.86462844 49.27730962 -10.49483308 49.23181068 -9.125 49.1875 C-8.44308594 49.14560547 -7.76117188 49.10371094 -7.05859375 49.06054688 C-3.25407556 48.9682042 -1.72238321 49.17084199 1.08203125 51.828125 C2.95210226 55.06642518 3.1737159 56.81576469 2.625 60.5 C0.84515595 63.6359157 0.10191793 64.34102736 -3.375 65.5 C-5.60318441 65.56937062 -7.83334524 65.58457084 -10.0625 65.5625 C-11.24199219 65.55347656 -12.42148437 65.54445313 -13.63671875 65.53515625 C-14.99216797 65.51775391 -14.99216797 65.51775391 -16.375 65.5 C-16.35834541 66.36657478 -16.35834541 66.36657478 -16.34135437 67.25065613 C-16.23065189 73.26891606 -16.15528795 79.28688636 -16.1003418 85.3059082 C-16.07521277 87.55147044 -16.04110385 89.796951 -15.99780273 92.04223633 C-15.93708224 95.27185218 -15.90877369 98.50038584 -15.88671875 101.73046875 C-15.84800911 103.23386055 -15.84800911 103.23386055 -15.80851746 104.7676239 C-15.80661694 109.50110816 -15.8141048 111.74974349 -18.71801758 115.6340332 C-21.375 117.5 -21.375 117.5 -24.375 118.125 C-28.56959212 117.25112664 -29.80584289 115.93651868 -32.375 112.5 C-33.06477285 108.90390423 -32.95726378 105.38053014 -32.86328125 101.73046875 C-32.85620651 100.69432938 -32.84913177 99.65819 -32.84184265 98.59065247 C-32.81390607 95.28886003 -32.7511663 91.98877784 -32.6875 88.6875 C-32.6624163 86.44598807 -32.63960326 84.2044495 -32.61914062 81.96289062 C-32.56408206 76.4746792 -32.48046281 70.98746179 -32.375 65.5 C-33.58736328 65.55220703 -33.58736328 65.55220703 -34.82421875 65.60546875 C-35.89285156 65.63253906 -36.96148437 65.65960938 -38.0625 65.6875 C-39.64611328 65.73970703 -39.64611328 65.73970703 -41.26171875 65.79296875 C-44.76565615 65.46323813 -46.57198511 64.58584712 -49.375 62.5 C-50.92086876 59.40826248 -50.66859521 56.90570448 -50.375 53.5 C-48.80859375 51.2890625 -48.80859375 51.2890625 -46.375 49.5 C-42.921875 49.109375 -42.921875 49.109375 -39.125 49.25 C-37.86171875 49.28609375 -36.5984375 49.3221875 -35.296875 49.359375 C-34.33265625 49.40578125 -33.3684375 49.4521875 -32.375 49.5 C-32.39071045 48.75951416 -32.4064209 48.01902832 -32.42260742 47.25610352 C-32.48547539 43.85831527 -32.52415441 40.46064996 -32.5625 37.0625 C-32.58763672 35.89783203 -32.61277344 34.73316406 -32.63867188 33.53320312 C-32.73471404 22.16821378 -30.91472493 14.92353603 -22.859375 6.67578125 C-15.90817665 0.58801791 -8.93700924 0.14845795 0 0 Z " fill="#000000" transform="translate(430.375,40.5)"/>
<path d="M0 0 C6.55253658 3.88900549 10.8954637 9.36254533 13.04296875 16.6640625 C14.22481196 23.15897078 13.04969935 29.51749746 9.84765625 35.26953125 C6.09657424 40.27813932 0.59948095 43.84186294 -5.515625 45.08984375 C-12.32169328 45.91795852 -17.64145225 44.62120441 -23.515625 41.08984375 C-26.390625 38.58984375 -26.390625 38.58984375 -28.515625 36.08984375 C-29.0725 35.47109375 -29.629375 34.85234375 -30.203125 34.21484375 C-34.14602814 27.8310958 -34.10597498 21.26707256 -32.515625 14.08984375 C-29.85717099 7.80525846 -25.40739132 2.99203696 -19.25390625 -0.015625 C-13.2816096 -1.96663204 -5.93494418 -2.14727018 0 0 Z M-15.390625 16.27734375 C-16.83903576 18.61089442 -17.31496707 20.34751874 -17.515625 23.08984375 C-16.68964554 25.71796021 -15.93321641 26.78744997 -13.703125 28.40234375 C-10.88018625 29.28955307 -9.310193 29.02136642 -6.515625 28.08984375 C-4.26513109 26.4823481 -3.59613121 25.29379283 -2.578125 22.71484375 C-2.29703907 19.94488308 -2.29703907 19.94488308 -4.015625 17.27734375 C-6.41856733 14.77197605 -6.41856733 14.77197605 -10.078125 14.58984375 C-13.39257045 14.83332132 -13.39257045 14.83332132 -15.390625 16.27734375 Z " fill="#000000" transform="translate(422.515625,388.91015625)"/>
</svg>
