<?xml version="1.0" encoding="UTF-8"?>
<svg version="1.1" xmlns="http://www.w3.org/2000/svg" width="512" height="512">
<path d="M0 0 C1.08139088 -0.00644889 2.16278177 -0.01289778 3.27694207 -0.0195421 C5.05036486 -0.01489629 5.05036486 -0.01489629 6.85961437 -0.01015663 C8.12005965 -0.01468774 9.38050493 -0.01921886 10.67914551 -0.02388728 C14.17551652 -0.03612086 17.67179187 -0.0358564 21.16817939 -0.03349853 C24.93993757 -0.03309045 28.71166505 -0.04412865 32.48340893 -0.05361366 C39.87222932 -0.07022666 47.26101779 -0.07572335 54.64985529 -0.07683842 C60.65606081 -0.07778876 66.6622558 -0.08189838 72.66845798 -0.08823967 C89.69769356 -0.105853 106.72690392 -0.11507841 123.75614867 -0.11357872 C125.13322792 -0.11345885 125.13322792 -0.11345885 126.53812695 -0.11333656 C127.91688791 -0.11321392 127.91688791 -0.11321392 129.32350262 -0.1130888 C144.2199339 -0.1122759 159.11626406 -0.13141423 174.01266608 -0.1596133 C189.30871808 -0.18834038 204.60472075 -0.20215368 219.90080041 -0.20042574 C228.48817221 -0.19976177 237.07543802 -0.20525707 245.66278553 -0.22678185 C252.97435751 -0.24499135 260.28577545 -0.24934293 267.59736029 -0.235763 C271.32700974 -0.22923209 275.05636364 -0.22912025 278.78598499 -0.2464695 C282.83158521 -0.26509484 286.8765009 -0.25264903 290.92211437 -0.23720741 C292.09770407 -0.24749454 293.27329376 -0.25778167 294.48450738 -0.26838052 C302.14427545 -0.20369956 307.96529901 0.68239743 313.63993359 6.29242516 C314.09497265 6.96144859 314.55001171 7.63047203 315.01883984 8.31976891 C315.49192577 8.99137047 315.96501171 9.66297203 316.45243359 10.35492516 C318.4275593 13.68325118 318.70554629 16.39169261 318.70159435 20.17369652 C318.70365635 21.69443024 318.70365635 21.69443024 318.70576 23.24588585 C318.70216473 24.35718864 318.69856945 25.46849144 318.69486523 26.61347008 C318.69501125 27.78433662 318.69515728 28.95520317 318.69530773 30.16155052 C318.69473009 33.37203167 318.68971181 36.58246934 318.68273377 39.79294181 C318.67648615 43.14818047 318.67589532 46.50341998 318.67470837 49.85866356 C318.67159921 56.21219644 318.66339142 62.56571213 318.65335888 68.91923743 C318.64218484 76.15254064 318.63668403 83.38584465 318.63166344 90.61915433 C318.62120847 105.49853544 318.60361706 120.37790045 318.58133984 135.25726891 C319.51348812 135.24838646 320.44563641 135.23950401 321.40603161 135.2303524 C330.21812929 135.14904025 339.03015022 135.08919536 347.84253883 135.05002022 C352.37241296 135.02920227 356.90198266 135.00099144 361.43168163 134.95551109 C365.8083553 134.9118454 370.18473733 134.88808829 374.56161213 134.87775993 C376.22608114 134.87040556 377.89053534 134.85604456 379.55487919 134.83434868 C398.54654052 134.59676894 398.54654052 134.59676894 405.44069958 140.97839928 C410.16953343 145.93415314 411.83477281 151.19122482 411.82184887 158.02799034 C411.82597286 159.71898605 411.82597286 159.71898605 411.83018017 161.4441433 C411.82298962 162.66621986 411.81579906 163.88829643 411.80839062 165.14740562 C411.80868267 166.44550667 411.80897472 167.74360771 411.80927563 169.08104515 C411.80984795 172.62815325 411.79811324 176.17512527 411.78412771 179.72220182 C411.77160022 183.43376374 411.77044826 187.145329 411.7680769 190.8569088 C411.76186805 197.87972528 411.74546532 204.90247928 411.72537792 211.92526829 C411.70300036 219.92282809 411.69202082 227.92039091 411.68198705 235.91797423 C411.66109854 252.36444233 411.62593418 268.81084764 411.58133984 285.25726891 C412.34031567 285.25060707 413.0992915 285.24394524 413.88126659 285.23708153 C421.06023349 285.17678255 428.23907628 285.13119961 435.41823101 285.10183239 C439.10845339 285.08622645 442.79846518 285.06508209 446.4885664 285.03095055 C450.05474426 284.99817448 453.62072052 284.98037781 457.18703747 284.97263718 C459.19878831 284.96445791 461.21045891 284.94106798 463.22208691 284.91737938 C471.53870538 284.91586047 478.86408435 285.3026126 485.39383984 291.06976891 C485.93653515 291.52996422 486.47923046 291.99015953 487.03837109 292.46430016 C490.95183408 297.01184323 491.95710017 301.29831798 491.96901989 307.18900108 C491.9770982 308.19890333 491.9770982 308.19890333 491.9853397 309.22920763 C491.9995817 311.47231165 491.99252521 313.71482237 491.98539257 315.9579525 C491.99109818 317.57145726 491.99806318 319.18495799 492.0061903 320.79845238 C492.02411719 325.17251999 492.02295405 329.54638694 492.01724792 333.92048025 C492.01415494 337.57595975 492.02024983 341.23140077 492.02628666 344.88687479 C492.04032915 353.51330181 492.0387733 362.1396298 492.02738476 370.76605797 C492.01590753 379.65592053 492.02997314 388.54548126 492.05678123 397.43530405 C492.07895784 405.07627272 492.08557108 412.71714679 492.07970482 420.35814536 C492.07633828 424.91800134 492.07872999 429.47766393 492.09595585 434.03749275 C492.11145389 438.32712616 492.10743794 442.61631359 492.0886507 446.90592957 C492.08497251 448.47642941 492.08805083 450.0469625 492.09853649 451.61743164 C492.18977197 466.41687277 492.18977197 466.41687277 487.58133984 473.25726891 C485.32743359 475.31586266 485.32743359 475.31586266 483.01883984 476.69476891 C481.87221874 477.40439781 481.87221874 477.40439781 480.70243359 478.12836266 C477.50058147 479.83247916 474.93454788 480.3839977 471.36413097 480.40443993 C470.0753001 480.41517288 470.0753001 480.41517288 468.76043224 480.42612267 C467.82066036 480.42881157 466.88088848 480.43150047 465.91263866 480.43427086 C464.92043316 480.44084206 463.92822765 480.44741325 462.90595531 480.45418358 C459.61675982 480.47392107 456.32761001 480.48558092 453.03837109 480.49555016 C451.91475359 480.49962568 450.79113609 480.50370121 449.63346958 480.50790024 C443.6850239 480.52876402 437.73660131 480.54306379 431.78812695 480.55243492 C425.64910469 480.56349312 419.51044552 480.59788573 413.37155151 480.63760662 C408.64712388 480.66377539 403.92278266 480.67212707 399.19828892 480.6757164 C396.93572255 480.68058253 394.67316005 480.69219721 392.41066456 480.71075439 C389.2391567 480.73514803 386.06858697 480.73417991 382.89701366 480.72723961 C381.50253757 480.7464547 381.50253757 480.7464547 380.07989025 480.76605797 C373.14093432 480.71088591 367.90041462 479.06374526 362.55790234 474.54633141 C362.11188671 473.99719078 361.66587109 473.44805016 361.20633984 472.88226891 C360.74485546 472.33828453 360.28337109 471.79430016 359.80790234 471.23383141 C356.99275329 466.69731734 356.33246676 462.23567971 356.35428905 456.97650719 C356.35453075 455.73876549 356.35477245 454.50102379 356.35502148 453.22577477 C356.36525341 451.93937096 356.37548534 450.65296715 356.38602734 449.32758141 C356.3880415 448.1344735 356.39005566 446.94136559 356.39213085 445.71210289 C356.40256978 441.26878561 356.43049233 436.82552327 356.45633984 432.38226891 C356.49758984 422.44101891 356.53883984 412.49976891 356.58133984 402.25726891 C333.48133984 402.25726891 310.38133984 402.25726891 286.58133984 402.25726891 C288.89133984 409.51726891 291.20133984 416.77726891 293.58133984 424.25726891 C293.91133984 426.56726891 294.24133984 428.87726891 294.58133984 431.25726891 C295.16512402 431.23108482 295.7489082 431.20490074 296.3503828 431.1779232 C318.72848905 430.3053317 318.72848905 430.3053317 327.39383984 437.83148766 C334.00959299 444.6539831 334.84068651 452.32743131 334.95633984 461.44476891 C334.97035839 462.21732018 334.98437695 462.98987144 334.9988203 463.78583336 C334.95795268 468.64541305 334.40765249 472.13705362 331.58133984 476.25726891 C326.85925611 480.16185605 323.02568819 480.83322699 317.07963085 480.76520348 C315.81647344 480.77456342 315.81647344 480.77456342 314.5277977 480.78411245 C311.71332683 480.80003438 308.89972299 480.78744143 306.08524609 480.77484703 C304.06456021 480.7802685 302.04387829 480.7873913 300.02320385 480.79608727 C294.53976148 480.81432045 289.05662019 480.80725299 283.57317257 480.79457092 C277.83443166 480.78444331 272.09571652 480.79383595 266.3569746 480.80011559 C256.71980187 480.80739267 247.08275176 480.79780263 237.44559765 480.77875328 C226.30400961 480.7569845 215.16271436 480.76403582 204.02113342 480.7860589 C194.45494264 480.8042111 184.88884 480.80677208 175.32263756 480.79630423 C169.60927246 480.79006834 163.89604497 480.78923638 158.18268871 480.80245018 C152.81129406 480.81400534 147.44027688 480.80598875 142.068923 480.78287315 C140.09767439 480.77758432 138.12639401 480.7791028 136.15515804 480.78792381 C133.4640262 480.79885593 130.77410363 480.78514408 128.08304882 480.76520348 C126.91310045 480.77858781 126.91310045 480.77858781 125.71951675 480.79224253 C120.53461549 480.71772924 117.54491238 479.5862715 113.58133984 476.25726891 C110.66836326 471.15802026 110.06052934 466.73356363 110.14383984 461.00726891 C110.15286327 460.26364098 110.16188671 459.52001305 110.17118359 458.75385094 C110.39953414 451.43236133 111.50773758 444.87091842 116.38212109 439.14008141 C123.89408319 432.10946833 130.53315926 430.8035751 140.51883984 431.06976891 C141.48885937 431.08330406 142.4588789 431.09683922 143.45829296 431.11078453 C145.83323113 431.14588214 148.20698361 431.19504616 150.58133984 431.25726891 C150.78758984 429.99914391 150.99383984 428.74101891 151.20633984 427.44476891 C152.28687891 421.94963951 153.95603352 416.6937784 155.66727734 411.37055016 C155.9472456 410.49225548 156.22721386 409.6139608 156.51566601 408.70905113 C157.2018234 406.55767706 157.89043839 404.40712318 158.58133984 402.25726891 C158.02695736 402.26095608 157.47257488 402.26464325 156.90139294 402.26844215 C143.3877648 402.3569295 129.8741877 402.4227889 116.36033154 402.46451759 C109.82500429 402.485377 103.28988643 402.51366533 96.75467968 402.55902672 C90.44583107 402.60254205 84.13718365 402.6264184 77.82819653 402.63677788 C75.42327744 402.64415894 73.01836914 402.65857241 70.61353588 402.68018913 C67.24058412 402.70929768 63.86845984 402.71322165 60.49540234 402.71137047 C59.50493404 402.72575157 58.51446575 402.74013268 57.49398327 402.75494957 C50.36401669 402.71270892 45.01621726 401.22134267 39.55790234 396.51117516 C39.11188671 395.95301109 38.66587109 395.39484703 38.20633984 394.81976891 C37.74485546 394.26418297 37.28337109 393.70859703 36.80790234 393.13617516 C33.22825099 387.6526965 33.30548875 382.6773722 33.35428905 376.3263607 C33.353997 375.33076637 33.35370495 374.33517204 33.35340405 373.30940819 C33.35479522 370.02501209 33.37034661 366.74084403 33.38602734 363.45648766 C33.38975822 361.17676988 33.39260483 358.8970505 33.39460278 356.61733055 C33.4022333 350.62171553 33.4218769 344.62619764 33.44401073 338.63062096 C33.46448161 332.51074093 33.47360716 326.39084519 33.48368359 320.27094078 C33.50512325 308.26634085 33.53925228 296.26181296 33.58133984 284.25726891 C32.50239452 284.27297935 31.42344921 284.2886898 30.31180859 284.30487633 C26.27884525 284.35949789 22.24591411 284.3937353 18.21268749 284.42206383 C16.47272256 284.43707744 14.73279499 284.45749468 12.99296093 284.48358727 C10.48065963 284.52029998 7.96886203 284.5370696 5.45633984 284.55023766 C4.68830029 284.56572151 3.92026073 284.58120537 3.12894726 284.59715843 C-3.41455479 284.59916165 -8.53125016 283.02908868 -14.16866016 279.56976891 C-20.15408015 273.41808726 -21.00432903 266.96952871 -20.93332386 258.66827965 C-20.94026939 257.62578292 -20.94721492 256.5832862 -20.95437092 255.50919867 C-20.97261465 252.02851779 -20.9623835 248.5485205 -20.95210743 245.06781578 C-20.95916714 242.56732741 -20.96791237 240.06684331 -20.97821522 237.5663662 C-20.99837676 231.48732877 -20.99973863 225.4085582 -20.99158967 219.32951462 C-20.98528081 214.38744052 -20.98643481 209.44542094 -20.99286175 204.5033474 C-20.9937634 203.79902398 -20.99466506 203.09470057 -20.99559404 202.36903402 C-20.9974453 200.93805713 -20.99930786 199.50708025 -21.0011816 198.07610339 C-21.0177461 184.66889539 -21.00905209 171.26179273 -20.99219602 157.85459107 C-20.97749745 145.59664456 -20.99213194 133.33894312 -21.02096618 121.08102816 C-21.05037824 108.48333129 -21.06132738 95.88574745 -21.05178398 83.28801775 C-21.05076146 81.86240866 -21.04976685 80.43679955 -21.04880047 79.01119041 C-21.04832408 78.30982789 -21.04784769 77.60846538 -21.04735686 76.88584945 C-21.04519526 71.95170511 -21.05498309 67.01766813 -21.0695715 62.08354759 C-21.08894573 55.43829037 -21.08198449 48.79341529 -21.05737209 42.1481514 C-21.05236059 39.7100955 -21.05586265 37.27200494 -21.06852055 34.83397675 C-21.08444007 31.5042125 -21.06950844 28.17595149 -21.04684925 24.84625816 C-21.05868498 23.88282604 -21.07052071 22.91939391 -21.08271509 21.92676687 C-20.99366728 15.48038486 -19.51652506 11.27030893 -15.41866016 6.25726891 C-10.76326684 1.83464524 -6.40204265 0.00967309 0 0 Z M-4.21343803 18.64240122 C-5.51207648 21.45994633 -5.7831341 23.24013057 -5.75923634 26.32294273 C-5.75900974 27.30358192 -5.75878315 28.28422112 -5.75854969 29.29457664 C-5.74306583 30.3405854 -5.72758198 31.38659416 -5.71162891 32.46430016 C-5.70738407 33.54483162 -5.70313923 34.62536308 -5.69876575 35.73863792 C-5.68200146 39.18260396 -5.64435242 42.62598035 -5.60616016 46.06976891 C-5.59111046 48.40765107 -5.57742256 50.74554242 -5.56514454 53.08344078 C-5.53210528 58.80825062 -5.48192782 64.53271763 -5.41866016 70.25726891 C-4.69474929 70.25873547 -3.97083841 70.26020203 -3.22499084 70.26171303 C14.37621432 70.29873858 31.97720843 70.35769648 49.5782547 70.44117165 C58.08994717 70.48100856 66.60154657 70.51337732 75.11332226 70.528265 C82.53079723 70.54125751 89.9480678 70.56816033 97.36542767 70.61188197 C101.2941871 70.63455122 105.22269391 70.65017634 109.15152454 70.64915276 C112.8477222 70.64840934 116.54336032 70.66623055 120.23941326 70.69843674 C122.24624786 70.71104897 124.25317613 70.70384697 126.26003551 70.69612694 C128.04581509 70.71699615 128.04581509 70.71699615 129.86767101 70.73828697 C131.42319667 70.74381773 131.42319667 70.74381773 133.01014709 70.74946022 C135.58133984 71.25726891 135.58133984 71.25726891 137.41891289 73.09829903 C138.97690874 75.99195709 138.92610059 78.0165178 138.58133984 81.25726891 C136.58133984 84.25726891 136.58133984 84.25726891 133.58133984 85.25726891 C131.70414827 85.35975137 129.82354823 85.40362106 127.94359875 85.41548729 C126.76990734 85.42527611 125.59621593 85.43506493 124.38695812 85.44515038 C123.09799129 85.45090584 121.80902447 85.4566613 120.48099804 85.46259117 C119.11111182 85.47217051 117.74122855 85.48218062 116.37134838 85.49258995 C112.6505892 85.51963909 108.92981733 85.5406486 105.20901418 85.56059194 C101.32123293 85.58245143 97.43349079 85.6098403 93.54574108 85.63664818 C86.18288278 85.68657556 78.82000277 85.73151422 71.457102 85.77467054 C63.07506214 85.82404252 54.69306151 85.8789608 46.31105959 85.93435013 C29.06785593 86.04817088 11.82461586 86.15500973 -5.41866016 86.25726891 C-5.46536265 109.11845569 -5.50064042 131.97963462 -5.52228451 154.84085941 C-5.53260095 165.45550887 -5.54666833 176.0701287 -5.56953907 186.68475914 C-5.58946166 195.93551507 -5.60237393 205.18624954 -5.60683715 214.43702632 C-5.60944644 219.33608996 -5.6155871 224.23509222 -5.63012028 229.1341362 C-5.6436863 233.7444725 -5.64788478 238.35472208 -5.64487553 242.96507645 C-5.64542613 244.65777876 -5.6494094 246.35048395 -5.65707111 248.04316902 C-5.66701705 250.35367131 -5.66463038 252.66384588 -5.6591692 254.9743557 C-5.66101278 256.26763125 -5.66285637 257.56090681 -5.66475582 258.89337254 C-5.42606149 262.1560997 -4.93688835 264.37485343 -3.41866016 267.25726891 C-0.92892248 268.50213775 0.73329401 268.38488795 3.51988411 268.38869667 C4.57051818 268.39253782 5.62115225 268.39637896 6.70362371 268.4003365 C8.4485788 268.39903678 8.4485788 268.39903678 10.22878551 268.3977108 C11.45752693 268.40068192 12.68626834 268.40365304 13.95224434 268.4067142 C17.37382291 268.41391035 20.79535129 268.41657474 24.21693385 268.41731167 C27.90274949 268.41915914 31.58855418 268.42670486 35.27436352 268.43344688 C43.33823742 268.44704252 51.40210637 268.45305665 59.46598983 268.45745754 C64.4976819 268.46021751 69.52937204 268.46445437 74.56106281 268.46896172 C88.48295598 268.48115527 102.4048476 268.49145488 116.32674599 268.49483681 C117.66388508 268.49516616 117.66388508 268.49516616 119.02803707 268.49550216 C119.92163384 268.49572044 120.81523061 268.49593871 121.73590606 268.49616361 C123.54677006 268.49660708 125.35763405 268.49705364 127.16849804 268.49750328 C128.06675515 268.49772471 128.96501226 268.49794614 129.89048929 268.49817428 C144.45420938 268.50212456 159.0178795 268.51958518 173.58158027 268.5428628 C188.52155403 268.56654982 203.46150267 268.57903742 218.40149552 268.58020473 C226.79479382 268.58112291 235.188027 268.58691114 243.58130741 268.60502434 C250.72655198 268.62038954 257.87171131 268.62556702 265.01696926 268.61728624 C268.66492406 268.61336714 272.31270702 268.61437022 275.96064091 268.62834358 C279.90947263 268.64333174 283.85805966 268.63525345 287.80691051 268.62476158 C289.54851952 268.63684619 289.54851952 268.63684619 291.32531255 268.64917493 C292.37855437 268.64258508 293.43179619 268.63599524 294.51695442 268.6292057 C295.8851693 268.63010134 295.8851693 268.63010134 297.28102487 268.63101506 C300.05765379 268.17987928 300.94981369 267.52163382 302.58133984 265.25726891 C303.02867709 261.96283817 303.02867709 261.96283817 302.94210339 258.10097313 C302.94466666 257.36745398 302.94722993 256.63393484 302.94987088 255.87818784 C302.95482306 253.41358756 302.93829271 250.9495962 302.92191601 248.48505211 C302.92107004 246.72108538 302.92154428 244.95711759 302.92324352 243.19315147 C302.9241061 238.39793543 302.90643795 233.60294342 302.88552165 228.80777955 C302.8667985 223.79894467 302.86500786 218.79010494 302.86144543 213.78124046 C302.85211212 204.29335307 302.82748095 194.80556908 302.79739696 185.31772727 C302.76389293 174.51739407 302.747377 163.717056 302.73231065 152.91668379 C302.70093252 130.69682106 302.64814705 108.47705149 302.58133984 86.25726891 C301.87381195 86.25395876 301.16628407 86.25064861 300.43731594 86.24723816 C283.22803547 86.16604646 266.01884785 86.07396663 248.80969143 85.96974182 C240.48749921 85.9196027 232.16531691 85.87315994 223.84305859 85.83539391 C216.59006586 85.8024708 209.33714979 85.76263783 202.08424163 85.71447885 C198.24326355 85.689217 194.4023363 85.66743481 190.56129742 85.65392494 C186.94649809 85.6411017 183.3318731 85.61904456 179.71716976 85.58988571 C177.75704077 85.57648326 175.79685242 85.57288893 173.83668041 85.56957054 C172.6700285 85.55840706 171.50337658 85.54724358 170.30137157 85.53574181 C169.28739929 85.53021105 168.27342701 85.52468029 167.22872829 85.51898193 C164.50380512 85.24960405 162.86682855 84.74196089 160.58133984 83.25726891 C159.05641986 80.20742895 159.34571436 77.61493201 159.58133984 74.25726891 C160.74223328 72.55953312 160.74223328 72.55953312 162.58133984 71.25726891 C165.13691521 70.87250805 165.13691521 70.87250805 168.25704479 70.85854149 C169.43915035 70.84600334 170.62125591 70.83346519 171.83918285 70.8205471 C173.13750042 70.82198219 174.43581799 70.82341728 175.77347851 70.82489586 C177.15322277 70.81588064 178.532959 70.80555401 179.91268444 70.79401207 C183.66034218 70.76638735 187.4078482 70.75715021 191.15559459 70.751158 C195.07144091 70.74178849 198.98717325 70.71558632 202.90294933 70.69115257 C210.31893043 70.64744457 217.73488946 70.61892409 225.15096027 70.59582919 C233.59349809 70.56880051 242.03592149 70.52488762 250.4783777 70.47954047 C267.84597289 70.38663263 285.21359278 70.31498008 302.58133984 70.25726891 C302.65728796 63.04908546 302.70989661 55.84100486 302.74613476 48.63251305 C302.76123865 46.17934882 302.78172305 43.72621167 302.8076582 41.27313805 C302.84397041 37.75085336 302.8610502 34.22892509 302.87430859 30.70648766 C302.88979244 29.60640877 302.9052763 28.50632988 302.92122936 27.37291527 C302.92145596 26.35208351 302.92168255 25.33125175 302.92191601 24.2794857 C302.92857784 23.38013802 302.93523968 22.48079033 302.94210339 21.55418968 C302.4940443 18.7014729 301.85040894 18.00243925 299.58133984 16.25726891 C297.20932271 15.8047845 297.20932271 15.8047845 294.50413036 15.87415886 C292.91996759 15.8605739 292.91996759 15.8605739 291.30380154 15.8467145 C290.13952003 15.85204242 288.97523853 15.85737035 287.77567577 15.86285973 C286.54199638 15.85676862 285.30831699 15.85067752 284.03725338 15.84440184 C280.60638634 15.83059975 277.17599636 15.83033041 273.74513721 15.83577681 C270.04772758 15.83844071 266.35037989 15.82392738 262.65299511 15.81168175 C255.40727282 15.79059918 248.16163049 15.78608848 240.91588116 15.78786963 C235.0287634 15.78917571 229.14167066 15.78538104 223.25455761 15.77794456 C221.56074937 15.77584545 219.86694114 15.77374784 218.1731329 15.77165174 C217.33016391 15.77060822 216.48719493 15.76956469 215.61868143 15.76848954 C199.66649316 15.74957616 183.71435085 15.75064088 167.76215601 15.75745887 C153.15641808 15.76303661 138.55085544 15.74220105 123.94515848 15.7090984 C108.95993943 15.67539824 93.97480445 15.66018837 78.98954678 15.66481543 C70.57163404 15.66706366 62.15388337 15.66176532 53.73600292 15.63692284 C46.57059749 15.61595718 39.405443 15.61227041 32.24002743 15.63122243 C28.58183547 15.64040938 24.92411197 15.64143406 21.26595592 15.62086678 C17.30607618 15.59884863 13.34690464 15.61530192 9.3870039 15.63580894 C8.2227224 15.6232911 7.0584409 15.61077325 5.85887814 15.59787607 C4.80276962 15.60968141 3.74666111 15.62148675 2.65854931 15.63364983 C1.74391037 15.63337744 0.82927143 15.63310506 -0.11308384 15.63282442 C-2.65948555 16.06921975 -2.65948555 16.06921975 -4.21343803 18.64240122 Z M318.58133984 151.25726891 C318.57914 152.15068741 318.57914 152.15068741 318.57689571 153.06215477 C318.53978938 167.57739888 318.48072407 182.09243988 318.3974371 196.60748863 C318.35768493 203.62698292 318.32527315 210.64636572 318.31034374 217.66596031 C318.2959119 224.44179625 318.26075703 231.21727404 318.21303082 237.99295616 C318.19820737 240.57644203 318.19029827 243.15997723 318.18945599 245.74350548 C318.18708764 249.36565447 318.16001576 252.98684742 318.12723827 256.60883141 C318.13226864 257.67410561 318.137299 258.73937981 318.1424818 259.83693504 C318.04499176 266.81228939 317.00466425 272.47543882 312.20505428 277.77768517 C305.92207847 283.45642997 299.29494632 283.55181774 291.29291821 283.53574181 C289.74164559 283.54443041 289.74164559 283.54443041 288.15903413 283.55329454 C284.69511612 283.57029419 281.23133135 283.57317106 277.76737499 283.57611656 C275.28375961 283.58541474 272.80014735 283.59558325 270.31653881 283.60655785 C264.9702201 283.62822335 259.62393624 283.64383495 254.27758694 283.65392494 C246.54771711 283.66852376 238.81791374 283.69406395 231.08808295 283.72225623 C218.54630208 283.76770237 206.00451162 283.80432617 193.46268749 283.83539391 C181.28102976 283.86558837 169.09939545 283.89994276 156.91776562 283.93988609 C155.7910458 283.94357842 155.7910458 283.94357842 154.64156397 283.94734533 C150.87320159 283.95972011 147.10483949 283.97217661 143.33647752 283.98467374 C112.0847927 284.08820894 80.83309189 284.17579616 49.58133984 284.25726891 C49.58133984 305.37726891 49.58133984 326.49726891 49.58133984 348.25726891 C150.89133984 348.25726891 252.20133984 348.25726891 356.58133984 348.25726891 C356.91133984 333.40726891 357.24133984 318.55726891 357.58133984 303.25726891 C360.62099264 295.15152809 362.9308737 291.08250198 370.58133984 287.25726891 C373.88234952 286.47372878 377.05956403 286.0937362 380.44462109 285.94086266 C381.77396679 285.87802086 381.77396679 285.87802086 383.13016796 285.81390953 C384.04217968 285.77459312 384.9541914 285.73527672 385.89383984 285.69476891 C386.82518749 285.65158531 387.75653515 285.60840172 388.71610546 285.56390953 C391.00438438 285.45829666 393.29276356 285.35619138 395.58133984 285.25726891 C395.67475496 268.37649614 395.74530507 251.49580397 395.78858852 234.61483192 C395.80921941 226.77680639 395.83734986 218.9389414 395.88309765 211.10101891 C395.92294955 204.26998054 395.94876883 197.43905844 395.95769382 190.60790706 C395.96291144 186.99034469 395.97518508 183.37311493 396.00426006 179.7556591 C396.03644471 175.71861031 396.03730033 171.68214084 396.0354414 167.64496422 C396.05701305 165.84314186 396.05701305 165.84314186 396.0790205 164.00491905 C396.07077251 162.35591103 396.07077251 162.35591103 396.0623579 160.67358971 C396.06604507 159.71861217 396.06973225 158.76363464 396.07353115 157.7797184 C395.43054372 154.48444829 394.20103594 153.29634007 391.58133984 151.25726891 C388.23340829 150.67730033 388.23340829 150.67730033 384.4260664 150.80316734 C383.71347164 150.80258324 383.00087688 150.80199913 382.26668835 150.80139732 C379.91794673 150.80417782 377.57048393 150.83526568 375.22196484 150.86664391 C373.59101079 150.87410648 371.96004776 150.87979934 370.32908154 150.88379478 C366.04135307 150.89904998 361.75416864 150.93833036 357.46665478 150.9826107 C353.08959341 151.02356614 348.71244393 151.04180635 344.33524609 151.06195641 C335.75036131 151.10482513 327.1659183 151.17307455 318.58133984 151.25726891 Z M372.58133984 305.25726891 C371.8370555 308.22433 371.8370555 308.22433 371.95987988 311.59576988 C371.94867107 312.89968178 371.93746227 314.20359367 371.92591381 315.54701805 C371.93882468 316.99015298 371.9522388 318.43328347 371.96610546 319.87640953 C371.96260419 321.39758994 371.95694553 322.91876669 371.94929028 324.43993187 C371.93503323 328.57024001 371.95211232 332.69988314 371.97557545 336.83012772 C371.99567065 341.15109456 371.98980559 345.47203343 371.98746777 349.79303551 C371.98752135 357.04961692 372.00728684 364.30593808 372.03934765 371.56244469 C372.07624115 379.9535847 372.08502338 388.34438374 372.07805014 396.73559427 C372.07174622 404.80554404 372.08249735 412.8753768 372.1020155 420.94530296 C372.11019309 424.38063282 372.11289838 427.8159029 372.11132336 431.25124168 C372.1104448 435.29622708 372.12465265 439.34088813 372.15054989 443.38578796 C372.15771577 444.87087303 372.15979327 446.3559926 372.15643215 447.84109116 C372.15272145 449.86700552 372.16929689 451.89292691 372.18693066 453.91876793 C372.19065937 455.05290878 372.19438808 456.18704964 372.19822979 457.3555584 C372.62761221 460.60774013 373.20735251 462.0092437 375.58133984 464.25726891 C377.47923995 464.85003161 377.47923995 464.85003161 379.60441113 464.75847435 C380.82835331 464.77322556 380.82835331 464.77322556 382.0770216 464.78827477 C383.41430561 464.77377281 383.41430561 464.77377281 384.77860546 464.75897789 C386.19117878 464.76708237 386.19117878 464.76708237 387.63228893 464.77535057 C390.75104042 464.78787727 393.86887586 464.77132041 396.98758984 464.75336266 C399.15087972 464.75351755 401.31416988 464.75500497 403.477458 464.75777245 C408.01367474 464.75915821 412.54957599 464.74656852 417.08573437 464.72382164 C422.90688268 464.69543671 428.72750654 464.69817208 434.54869366 464.71091175 C439.01646452 464.71785929 443.48411368 464.7100902 447.95186901 464.69765472 C450.09852158 464.69313123 452.24518716 464.69281122 454.39184093 464.69672012 C457.38952548 464.69962325 460.38648159 464.68316818 463.38407421 464.66132164 C464.27559689 464.66582329 465.16711956 464.67032494 466.08565807 464.674963 C466.90161953 464.66505836 467.71758099 464.65515373 468.55826855 464.64494896 C469.26691807 464.64251906 469.97556759 464.64008917 470.70569134 464.63758564 C473.17200658 464.13750209 474.0393093 463.21356148 475.58133984 461.25726891 C476.66666316 458.00129895 476.71255069 455.62439226 476.72178173 452.19760704 C476.72749187 450.93017159 476.73320202 449.66273613 476.7390852 448.35689354 C476.74033054 446.94949923 476.74145564 445.54210481 476.74247265 444.13471031 C476.7471012 442.65471333 476.75212591 441.17471753 476.75751781 439.69472313 C476.7706393 435.67196653 476.77708615 431.64922662 476.78152847 427.62645197 C476.7844593 425.11358128 476.7885641 422.60071515 476.79303265 420.08784676 C476.80670624 412.22670755 476.81637386 404.36557878 476.82023454 396.50442851 C476.82471663 387.42772169 476.84227207 378.35116536 476.87123513 369.2745043 C476.89284307 362.25955859 476.90293832 355.24465525 476.90427566 348.2296766 C476.90532422 344.03932815 476.91124307 339.84912119 476.92909527 335.65880775 C476.94556091 331.71731156 476.94773889 327.77606345 476.93895626 323.83454514 C476.9381851 322.38855958 476.94253903 320.94256077 476.95241451 319.49660873 C476.96511271 317.5214123 476.95747324 315.54611641 476.94883251 313.57089806 C476.95029907 312.46587755 476.95176563 311.36085705 476.95327663 310.22235107 C476.53089713 306.85513941 475.58684186 304.97115039 473.58133984 302.25726891 C470.23992555 300.58656176 466.48002506 301.09170606 462.80472851 301.08026695 C461.89563229 301.07369576 460.98653606 301.06712456 460.04989147 301.06035423 C457.03302973 301.0405984 454.01621781 301.02895383 450.99930859 301.01898766 C449.45582965 301.01287436 449.45582965 301.01287436 447.88116932 301.00663757 C442.43544368 300.98576754 436.98974332 300.9714696 431.54398632 300.96210289 C425.91468163 300.95103378 420.28577172 300.91663057 414.65660667 300.87693119 C410.33204944 300.85080606 406.00758686 300.84241472 401.68295765 300.83882141 C399.60770341 300.83394519 397.53245369 300.82230189 395.45727634 300.80378342 C392.5532428 300.77947846 389.65023853 300.78034121 386.74613476 300.7872982 C385.88828381 300.77448814 385.03043285 300.76167809 384.14658642 300.74847984 C382.95421619 300.75889557 382.95421619 300.75889557 381.73775768 300.76952171 C381.05177596 300.76713336 380.36579424 300.76474501 379.65902519 300.76228428 C376.47195213 301.52156776 374.84003524 302.9127406 372.58133984 305.25726891 Z M49.58133984 364.25726891 C49.58133984 370.52726891 49.58133984 376.79726891 49.58133984 383.25726891 C53.16750415 386.84343322 53.91753454 386.63502983 58.7995863 386.6492672 C60.10212353 386.66036018 61.40466076 386.67145317 62.74666882 386.68288231 C64.19343144 386.6801133 65.64019355 386.67706748 67.08695507 386.67377281 C68.60798851 386.68115072 70.12901601 386.68985506 71.6500349 386.69978905 C75.78432224 386.72315091 79.91845952 386.72826381 84.05280471 386.73044825 C88.37650048 386.73610229 92.700098 386.75937187 97.02373791 386.7810421 C105.21765595 386.81960117 113.41154596 386.84379621 121.60553175 386.86216676 C136.27937894 386.8955367 150.95314167 386.95329806 165.62688881 387.01615846 C170.77815247 387.03765896 175.92938718 387.05292405 181.0806855 387.06299806 C184.28432381 387.07001485 187.48794141 387.08089512 190.69156551 387.09263992 C192.17827395 387.09719885 193.66498876 387.1000457 195.15170383 387.10106277 C197.17984757 387.10263464 199.20798308 387.11076508 201.23610973 387.1192379 C202.93926924 387.12307204 202.93926924 387.12307204 204.67683601 387.12698364 C207.16048873 387.23839109 209.21630652 387.53249848 211.58133984 388.25726891 C212.80356206 395.59060224 212.80356206 395.59060224 211.76883984 398.69476891 C210.58133984 400.25726891 210.58133984 400.25726891 208.58133984 401.25726891 C206.10301325 401.41353466 203.64822653 401.51540089 201.16727734 401.57367516 C200.43763775 401.59445625 199.70799816 401.61523735 198.95624828 401.63664818 C196.6230422 401.70208807 194.28972262 401.76100258 191.95633984 401.81976891 C190.37559888 401.86295943 188.79486945 401.9065739 187.21415234 401.95062828 C183.3366648 402.05776371 179.45906298 402.15904673 175.58133984 402.25726891 C174.78529151 404.63862134 173.98980016 407.02015746 173.19462109 409.40180016 C172.97133129 410.06957481 172.7480415 410.73734947 172.51798534 411.42535973 C168.96193698 421.13973119 168.96193698 421.13973119 167.58133984 431.25726891 C204.21133984 431.25726891 240.84133984 431.25726891 278.58133984 431.25726891 C274.90687474 416.43150427 274.90687474 416.43150427 269.58133984 402.25726891 C268.60261913 402.2479232 267.62389843 402.2385775 266.61551952 402.22894859 C262.97720193 402.18901432 259.33972692 402.12324757 255.7019453 402.04974937 C254.1288134 402.02155937 252.55554037 402.00033493 250.98221874 401.98627281 C248.71765027 401.96481449 246.45477479 401.91815543 244.19071484 401.86664391 C243.48952526 401.86541527 242.78833569 401.86418663 242.06589794 401.86292076 C238.6586271 401.76118171 236.85319747 401.46579362 234.11649609 399.36664391 C232.58133984 397.25726891 232.58133984 397.25726891 232.40946484 394.89789391 C232.54868359 394.10898766 232.68790234 393.32008141 232.83133984 392.50726891 C232.96024609 391.70805016 233.08915234 390.90883141 233.22196484 390.08539391 C233.34055859 389.48211266 233.45915234 388.87883141 233.58133984 388.25726891 C236.6443015 387.36771571 239.39509598 387.12256817 242.5800581 387.09905052 C243.58684109 387.0892617 244.59362408 387.07947289 245.63091564 387.06938744 C247.27845081 387.06075424 247.27845081 387.06075424 248.95926952 387.05194664 C250.12052853 387.04204704 251.28178753 387.03214745 252.4782362 387.02194786 C256.31987494 386.99033889 260.16152606 386.96557767 264.00321484 386.94086266 C266.66551163 386.92029261 269.32780274 386.89934367 271.99009228 386.87788963 C278.28335169 386.82800777 284.57663627 386.78305226 290.86994481 386.73986727 C298.03559005 386.69045634 305.20118992 386.63555253 312.36679125 386.58018768 C327.10493219 386.46643682 341.84311976 386.3603079 356.58133984 386.25726891 C356.58133984 378.99726891 356.58133984 371.73726891 356.58133984 364.25726891 C255.27133984 364.25726891 153.96133984 364.25726891 49.58133984 364.25726891 Z M127.58133984 451.25726891 C126.05429356 455.31136146 126.05429356 455.31136146 126.58133984 464.25726891 C189.94133984 464.25726891 253.30133984 464.25726891 318.58133984 464.25726891 C319.21187071 455.50082788 319.21187071 455.50082788 315.58133984 449.25726891 C311.83921169 446.76251681 309.89592111 447.00122278 305.42072582 446.98984337 C304.31961352 446.9830467 304.31961352 446.9830467 303.19625652 446.97611272 C300.72966481 446.96342439 298.26329265 446.96509193 295.79667187 446.96674156 C294.03096259 446.96075907 292.26525593 446.95395417 290.49955273 446.94638634 C285.69788096 446.92869058 280.89628044 446.92402945 276.09457922 446.92275476 C272.08854316 446.92085752 268.08252376 446.91350199 264.0764941 446.90641057 C254.62611511 446.89011538 245.17577423 446.88524265 235.7253828 446.88666344 C225.97156 446.88786513 216.21795838 446.86676033 206.46419156 446.83517611 C198.09468484 446.8090385 189.72525047 446.79829509 181.35570323 446.79957426 C176.35490995 446.80008464 171.35431315 446.79435955 166.35356045 446.77321815 C161.65033583 446.75387812 156.94749598 446.75368219 152.24425793 446.76825142 C150.51768845 446.7703459 148.79109517 446.76560066 147.06456661 446.7535305 C144.70789705 446.7381217 142.35256142 446.74735594 139.99592113 446.76279259 C138.67704466 446.76170305 137.35816818 446.76061352 135.99932575 446.75949097 C132.01372231 447.33993381 130.36730885 448.39497558 127.58133984 451.25726891 Z " fill="#000000" transform="translate(20.418660163879395,15.742731094360352)"/>
<path d="M0 0 C0.75987213 -0.0049649 1.51974426 -0.00992981 2.30264282 -0.01504517 C4.81204134 -0.02962853 7.32137664 -0.0364625 9.83081055 -0.04199219 C11.57952373 -0.04774691 13.32823691 -0.05350461 15.07695007 -0.05926514 C18.74287204 -0.06976433 22.40877215 -0.07561403 26.07470703 -0.07910156 C30.76206387 -0.08458314 35.44912978 -0.10860849 40.13639545 -0.13707352 C43.74902682 -0.15573767 47.36158864 -0.16090751 50.97426414 -0.16243744 C52.70175962 -0.16545611 54.42925409 -0.17345803 56.15670204 -0.18662262 C58.57864875 -0.20376201 60.99989152 -0.20178387 63.421875 -0.1953125 C64.12913223 -0.20452728 64.83638947 -0.21374207 65.56507874 -0.22323608 C70.62552318 -0.18108223 73.98630765 0.86867677 78.4050293 3.16113281 C82.26577001 7.2250704 83.5259862 10.35119022 83.54547119 15.8853302 C83.55118134 16.8568251 83.55689148 17.82832001 83.56277466 18.82925415 C83.56445145 20.42596451 83.56445145 20.42596451 83.56616211 22.05493164 C83.57360947 23.7382534 83.57360947 23.7382534 83.58120728 25.45558167 C83.59583936 29.17644865 83.60263264 32.89727301 83.6081543 36.61816406 C83.61390485 39.20025128 83.61966259 41.78233848 83.62542725 44.36442566 C83.63459593 49.08963808 83.64089505 53.81483341 83.643924 58.54005319 C83.64840296 65.48866102 83.66594444 72.43707196 83.69492459 79.38561994 C83.71917152 85.40895046 83.72686957 91.43218805 83.72859955 97.45557213 C83.73162816 100.01563272 83.73966365 102.57569245 83.75278473 105.13572121 C83.76982992 108.71701617 83.76796839 112.29783138 83.76147461 115.87915039 C83.77068939 116.93755127 83.77990417 117.99595215 83.78939819 119.08642578 C83.75880434 124.46975516 83.68645686 128.65380478 80.4050293 133.16113281 C75.84224206 137.17472083 71.8918426 137.74099482 66.01635742 137.67871094 C64.78591957 137.68922485 64.78591957 137.68922485 63.53062439 137.69995117 C60.83216007 137.71748688 58.13475339 137.7059245 55.4362793 137.69238281 C53.55350545 137.69507901 51.67073296 137.69896249 49.78796387 137.70397949 C45.84719551 137.70986854 41.90679049 137.70133074 37.96606445 137.68261719 C32.92202075 137.65982799 27.87882846 137.67295425 22.83481598 137.69690704 C18.94852314 137.71138108 15.06243119 137.70675167 11.1761322 137.69639587 C9.31664427 137.69373303 7.45713793 137.69698277 5.59767151 137.70631409 C2.99585864 137.71650623 0.39541259 137.70094219 -2.20629883 137.67871094 C-2.97011368 137.68680786 -3.73392853 137.69490479 -4.52088928 137.70324707 C-9.69218299 137.62164357 -12.71039654 136.57814078 -16.5949707 133.16113281 C-20.47785012 127.82773591 -20.0193262 122.16693374 -19.9831543 115.83496094 C-19.98841125 114.70255478 -19.99366821 113.57014862 -19.99908447 112.40342712 C-20.0122707 108.66627138 -20.00355085 104.92954277 -19.9934082 101.19238281 C-19.99542932 98.59216226 -19.99834108 95.99194225 -20.00210571 93.39172363 C-20.00652722 87.94451981 -20.00039043 82.49747603 -19.98608398 77.05029297 C-19.96975871 70.76201536 -19.97504773 64.47402961 -19.9915632 58.18575907 C-20.00684237 52.12448518 -20.00519363 46.06335352 -19.996418 40.00205994 C-19.99441726 37.42805439 -19.99687083 34.8540414 -20.00385666 32.28004456 C-20.01147824 28.68226411 -19.99985604 25.08504346 -19.9831543 21.48730469 C-19.98922699 20.4242662 -19.99529968 19.36122772 -20.0015564 18.26597595 C-19.95485804 12.83387295 -19.7422501 8.81105244 -16.5949707 4.16113281 C-11.29868162 0.22286657 -6.42167602 0.0100634 0 0 Z M-3.5949707 16.16113281 C-3.5949707 50.81113281 -3.5949707 85.46113281 -3.5949707 121.16113281 C19.8350293 121.16113281 43.2650293 121.16113281 67.4050293 121.16113281 C67.4050293 86.51113281 67.4050293 51.86113281 67.4050293 16.16113281 C43.9750293 16.16113281 20.5450293 16.16113281 -3.5949707 16.16113281 Z " fill="#000000" transform="translate(57.594970703125,123.8388671875)"/>
<path d="M0 0 C0.9545961 -0.00571014 1.9091922 -0.01142029 2.89271545 -0.01730347 C4.45362411 -0.01898026 4.45362411 -0.01898026 6.04606628 -0.02069092 C7.69793694 -0.02813828 7.69793694 -0.02813828 9.38317871 -0.03573608 C13.02887088 -0.05034954 16.67451955 -0.05715825 20.32023621 -0.06268311 C22.85365805 -0.06843505 25.38707989 -0.07419278 27.92050171 -0.07995605 C32.55510565 -0.08912078 37.18969655 -0.09542215 41.82430726 -0.09845281 C48.63479555 -0.10293145 55.44508293 -0.12047379 62.25551015 -0.1494534 C68.16402924 -0.17371807 74.07249855 -0.18139921 79.98106956 -0.18312836 C82.4900643 -0.18615426 84.99905821 -0.19418066 87.5080204 -0.20731354 C91.0195548 -0.22438276 94.53060089 -0.22249136 98.04216003 -0.21600342 C99.59395966 -0.22982559 99.59395966 -0.22982559 101.17710876 -0.243927 C106.97997433 -0.21037022 111.12798713 0.31545625 116.23820496 3.14044189 C121.37422904 8.41162451 121.40071868 13.03709053 121.44132996 20.12481689 C121.44703003 20.89924133 121.4527301 21.67366577 121.45860291 22.47155762 C121.46803347 24.10889326 121.47457915 25.74624771 121.47843933 27.38360596 C121.48811753 29.86799958 121.51914705 32.35155567 121.55070496 34.83575439 C121.55723866 36.43210369 121.56248769 38.02845886 121.56632996 39.62481689 C121.57867676 40.35843445 121.59102356 41.092052 121.60374451 41.84790039 C121.5827488 46.79570112 121.20468908 52.02842027 118.23820496 56.14044189 C112.26063297 60.67504323 107.05407669 60.71364342 99.72257996 60.65802002 C98.01153076 60.66853394 98.01153076 60.66853394 96.26591492 60.67926025 C92.50642847 60.69682263 88.74769867 60.68522282 84.98820496 60.67169189 C82.36938839 60.67438729 79.75057279 60.6782701 77.13175964 60.68328857 C71.64762724 60.69055232 66.16371077 60.68101101 60.67961121 60.66192627 C54.35206165 60.64015968 48.02502776 60.64721197 41.69749069 60.66923189 C35.5940089 60.6896166 29.49075453 60.68740118 23.38725281 60.67570496 C20.79732694 60.6730393 18.20738788 60.67630173 15.61747742 60.68562317 C11.99590853 60.6957976 8.37532554 60.68027309 4.75382996 60.65802002 C3.15299561 60.67016541 3.15299561 60.67016541 1.51982117 60.68255615 C-4.7592731 60.61118833 -8.70318759 59.97899656 -13.76179504 56.14044189 C-17.13759216 51.4428817 -17.20712374 45.32235182 -17.16023254 39.73028564 C-17.16310272 38.95914932 -17.1659729 38.188013 -17.16893005 37.39350891 C-17.17095691 35.77586119 -17.16552434 34.15818818 -17.15290833 32.54058838 C-17.1368116 30.08047212 -17.15281444 27.62199281 -17.17195129 25.16192627 C-17.16996905 23.58054248 -17.16612575 21.9991597 -17.16023254 20.41778564 C-17.16630524 19.69155502 -17.17237793 18.9653244 -17.17863464 18.21708679 C-17.09389668 11.99471213 -15.86453811 7.18926847 -11.32429504 2.76544189 C-7.5493715 0.37158794 -4.41842735 0.01587558 0 0 Z M-0.76179504 16.14044189 C-0.76179504 25.38044189 -0.76179504 34.62044189 -0.76179504 44.14044189 C34.21820496 44.14044189 69.19820496 44.14044189 105.23820496 44.14044189 C105.23820496 34.90044189 105.23820496 25.66044189 105.23820496 16.14044189 C70.25820496 16.14044189 35.27820496 16.14044189 -0.76179504 16.14044189 Z " fill="#000000" transform="translate(179.7617950439453,123.85955810546875)"/>
<path d="M0 0 C1.07398041 -0.00571014 2.14796082 -0.01142029 3.25448608 -0.01730347 C4.43790588 -0.01842133 5.62132568 -0.01953918 6.84060669 -0.02069092 C8.70409256 -0.02813828 8.70409256 -0.02813828 10.60522461 -0.03573608 C14.01850475 -0.047858 17.43172352 -0.05530629 20.84501791 -0.05974674 C22.97679122 -0.06267633 25.10855914 -0.06678092 27.24032974 -0.07125092 C33.90812336 -0.08492745 40.57590467 -0.0945934 47.24371135 -0.09845281 C54.94453756 -0.10293444 62.64518634 -0.1204864 70.34595859 -0.1494534 C76.29590974 -0.17105881 82.24581093 -0.18115647 88.1958009 -0.18249393 C91.75065814 -0.18354276 95.30534865 -0.189467 98.86016464 -0.20731354 C102.82505794 -0.22683134 106.78972893 -0.22250978 110.75466919 -0.21600342 C111.93404053 -0.2252182 113.11341187 -0.23443298 114.32852173 -0.243927 C115.94795181 -0.23557327 115.94795181 -0.23557327 117.60009766 -0.22705078 C118.53772886 -0.22851734 119.47536007 -0.2299839 120.44140434 -0.2314949 C123.4156702 0.21355917 124.77072001 1.07027534 126.92703247 3.14044189 C128.10110881 6.74094268 128.25462923 8.41972902 126.67703247 11.89044189 C124.92703247 14.14044189 124.92703247 14.14044189 121.92703247 16.14044189 C119.60406685 16.3977108 119.60406685 16.3977108 116.81646729 16.40786743 C115.75938568 16.4163974 114.70230408 16.42492737 113.6131897 16.43371582 C112.4536377 16.43280945 111.29408569 16.43190308 110.09939575 16.43096924 C108.87803925 16.43768646 107.65668274 16.44440369 106.39831543 16.45132446 C103.04694865 16.46708497 99.69582966 16.47368052 96.34444284 16.47495604 C93.54627302 16.47685523 90.74812698 16.48421306 87.94996631 16.49130023 C81.34742012 16.50758822 74.74492847 16.51246884 68.1423645 16.51104736 C61.33320668 16.50984602 54.52436588 16.53094508 47.71528828 16.56253469 C41.86804912 16.58869456 36.02091352 16.59941478 30.17361629 16.59813654 C26.68185528 16.59762678 23.19037593 16.60331699 19.69867325 16.62449265 C15.80347584 16.64747004 11.90871241 16.63835583 8.01345825 16.62628174 C6.28020294 16.64314026 6.28020294 16.64314026 4.51193237 16.66033936 C-3.28046039 16.59882727 -3.28046039 16.59882727 -7.26586914 14.29367065 C-9.6138671 11.4959388 -10.07296753 9.7857953 -10.07296753 6.14044189 C-7.56927822 0.77539338 -5.70058922 0.01809984 0 0 Z " fill="#000000" transform="translate(173.07296752929688,209.85955810546875)"/>
<path d="M0 0 C1.23459961 -0.01270432 1.23459961 -0.01270432 2.49414062 -0.02566528 C5.21833697 -0.04908866 7.94197028 -0.05005619 10.66625977 -0.04882812 C12.55811287 -0.05592653 14.44996381 -0.06362505 16.34181213 -0.07189941 C20.30882754 -0.08535652 24.27564391 -0.0869075 28.24267578 -0.08105469 C33.32856536 -0.07515765 38.41350065 -0.10574443 43.49920559 -0.14617157 C47.40685683 -0.17201051 51.31427714 -0.17492945 55.22200203 -0.17127991 C57.0971218 -0.17297476 58.97225182 -0.18265224 60.84728813 -0.20042419 C63.46915572 -0.22253922 66.08907707 -0.2129512 68.7109375 -0.1953125 C69.48665604 -0.20857574 70.26237457 -0.22183899 71.06159973 -0.23550415 C74.89998763 -0.17544587 76.56813035 0.08700425 79.4019928 2.76696777 C81.25850626 6.0111595 81.54660262 7.73960684 80.92016602 11.41992188 C79.05306691 13.72267744 77.5636886 15.09816058 74.92016602 16.41992188 C72.37821107 16.52327438 69.86346139 16.56673432 67.32104492 16.56518555 C66.14518578 16.57022346 66.14518578 16.57022346 64.9455719 16.57536316 C62.34594145 16.5848866 59.74637533 16.58681703 57.14672852 16.58789062 C55.3431292 16.59110246 53.53953015 16.59446648 51.7359314 16.59797668 C47.95130815 16.6039716 44.16670774 16.60581624 40.38208008 16.60522461 C35.53077063 16.60512302 30.67960764 16.61877051 25.8283329 16.63599682 C22.10172858 16.64711223 18.3751597 16.64914395 14.6485405 16.64861488 C12.85996369 16.64979587 11.07138599 16.6542243 9.28282547 16.66194725 C6.78113793 16.67173699 4.27976876 16.66887306 1.77807617 16.6628418 C1.03818954 16.6684613 0.29830292 16.67408081 -0.46400452 16.67987061 C-4.15168352 16.65726179 -6.98740985 16.53922691 -10.07983398 14.41992188 C-12.17662801 11.72404384 -12.07494219 10.32697788 -11.89233398 6.85742188 C-10.23202692 -0.16695416 -6.58455172 -0.02481117 0 0 Z " fill="#000000" transform="translate(51.079833984375,50.580078125)"/>
<path d="M0 0 C0.6461879 -0.00700928 1.29237579 -0.01401855 1.95814514 -0.02124023 C4.08256704 -0.03876735 6.20564399 -0.02721823 8.33007812 -0.01367188 C9.81311294 -0.01636836 11.29614602 -0.02025208 12.7791748 -0.02526855 C15.8827401 -0.03115637 18.98584395 -0.02262444 22.08935547 -0.00390625 C26.06080609 0.01888368 30.03117539 0.00575664 34.00258636 -0.01819611 C37.06361997 -0.03267395 40.12439864 -0.02803917 43.18544006 -0.01768494 C44.64942046 -0.0150231 46.11342426 -0.01826832 47.57737732 -0.02760315 C49.62642413 -0.03780252 51.67373802 -0.02222486 53.72265625 0 C54.88671997 0.00318237 56.05078369 0.00636475 57.25012207 0.00964355 C61.01073024 0.62359932 62.67167365 1.86736723 65.36132812 4.51757812 C66.8242929 7.99211946 66.47407931 9.23838471 65.04882812 12.76757812 C63.36132812 15.51757812 63.36132812 15.51757812 61.36132812 16.51757812 C59.19758923 16.62997788 57.03035409 16.67694276 54.86376953 16.69458008 C54.19690628 16.70115128 53.53004303 16.70772247 52.8429718 16.7144928 C50.63294364 16.73422703 48.42298339 16.74588788 46.21289062 16.75585938 C45.08126055 16.76197267 45.08126055 16.76197267 43.92676926 16.76820946 C39.93458072 16.78906963 35.94242657 16.80337217 31.95019531 16.81274414 C27.82511318 16.82381532 23.7005695 16.85822285 19.57567787 16.89791584 C16.40494782 16.92404809 13.2343468 16.93243286 10.06351852 16.93602562 C8.54285414 16.94089955 7.02219583 16.95253657 5.50163651 16.97106361 C3.373214 16.99538728 1.24619443 16.99450367 -0.88232422 16.98754883 C-2.09318695 16.99341507 -3.30404968 16.99928131 -4.55160522 17.00532532 C-8.23429673 16.4234712 -9.39422994 15.43334848 -11.63867188 12.51757812 C-12.20507812 10.51757812 -12.20507812 10.51757812 -12.20117188 8.51757812 C-12.22308594 7.85757813 -12.245 7.19757813 -12.26757812 6.51757812 C-10.47547095 0.81845468 -5.26529113 0.0143945 0 0 Z " fill="#000000" transform="translate(234.638671875,244.482421875)"/>
<path d="M0 0 C1.0415625 -0.01611328 2.083125 -0.03222656 3.15625 -0.04882812 C13.02063753 -0.05513528 13.02063753 -0.05513528 16.625 3.3125 C17.5078125 5.1796875 17.5078125 5.1796875 17.75 7.1875 C17.85570312 7.84492188 17.96140625 8.50234375 18.0703125 9.1796875 C17.27928895 12.96827399 15.79524847 14.11335267 12.625 16.3125 C8.42456865 17.00672949 4.30915554 16.91884766 0.0625 16.8125 C-1.64196289 16.81636719 -1.64196289 16.81636719 -3.38085938 16.8203125 C-12.87014688 16.70834451 -12.87014688 16.70834451 -16.375 13.3125 C-17.54907634 9.71199922 -17.70259676 8.03321287 -16.125 4.5625 C-11.73717335 -1.07899141 -6.54574505 -0.02010364 0 0 Z " fill="#000000" transform="translate(180.375,244.6875)"/>
<path d="M0 0 C2.87110164 1.72266098 3.03187275 3.10757052 4 6.375 C4 10 4 10 2 12.9375 C-1.71933162 15.49454049 -3.57136786 15.72468526 -8 15 C-10.4375 13.5 -10.4375 13.5 -12 11 C-12.61014545 8.1910285 -12.65360928 5.80363979 -12 3 C-8.3655827 -1.51548816 -5.40521016 -1.50144727 0 0 Z " fill="#000000" transform="translate(449,451)"/>
<path d="M0 0 C2.4375 1.5 2.4375 1.5 4 4 C4.61014545 6.8089715 4.65360928 9.19636021 4 12 C1.9375 14.5625 1.9375 14.5625 -1 16 C-4.49672962 15.93971156 -6.8982551 15.69777177 -9.875 13.8125 C-11.52261692 11.15800608 -11.87533099 9.11672513 -12 6 C-9.1840965 -0.03407893 -6.51096853 -0.56129039 0 0 Z " fill="#000000" transform="translate(221,51)"/>
<path d="M0 0 C2.4375 1.5 2.4375 1.5 4 4 C4.61014545 6.8089715 4.65360928 9.19636021 4 12 C1.9375 14.5625 1.9375 14.5625 -1 16 C-4.5241557 15.93923869 -6.91616966 15.72255356 -9.875 13.75 C-11.39898926 11.37935004 -11.86819981 9.83370413 -12 7 C-9.28600098 0.27962146 -7.19984817 -0.62067657 0 0 Z " fill="#000000" transform="translate(258,51)"/>
<path d="M0 0 C2.44053024 1.79828544 3.63399544 3.18956132 4.875 5.9375 C5.04885552 8.806116 4.35779132 10.47838754 3 13 C1.3125 14.875 1.3125 14.875 -1 16 C-4.39685818 15.88081199 -6.94000615 15.58128695 -9.9375 13.9375 C-11.69366901 10.73507415 -11.62026592 7.50309274 -11 4 C-8.16250305 -0.53999512 -5.10870514 -0.72981502 0 0 Z " fill="#000000" transform="translate(295,51)"/>
</svg>
